<?xml version="1.0" encoding="UTF-8"?>
<svg data-name="Слой 1" xmlns="http://www.w3.org/2000/svg" viewBox="0 0 169.25 180.96">
  <defs>
    <style>
      .cls-1 {
        fill: #2478ff;
        stroke-width: 0px;
      }
    </style>
  </defs>
  <path class="cls-1" d="m116.02,172.68c11.4-7.31,21.62-16.59,29.72-27.47,4.07-5.42,7.5-11.31,10.33-17.47,2.79-6.17,5.09-12.6,6.45-19.26.18-.82.42-1.68.55-2.45.15-.81.27-1.66.39-2.49.24-1.68.43-3.38.59-5.08.31-3.4.49-6.83.54-10.25.1-6.85-.37-13.71-1.43-20.47-2.13-13.48-6.98-26.66-15.28-37.49-4.17-5.38-9.16-10.11-14.74-14.05-5.62-3.89-11.8-6.97-18.27-9.27-12.99-4.51-27.06-5.84-40.82-4.49-13.78,1.36-27.3,5.31-39.83,11.33C21.69,19.77,10.15,27.86,0,37.43c9.95-9.77,21.36-18.12,33.85-24.43C46.34,6.69,59.91,2.41,73.87.74c13.94-1.65,28.33-.61,41.81,3.77,6.72,2.23,13.19,5.29,19.13,9.23,5.9,3.99,11.24,8.84,15.73,14.4,4.42,5.61,8.12,11.81,10.82,18.41,2.78,6.58,4.69,13.48,5.97,20.47,1.24,7,1.87,14.1,1.91,21.19.03,3.55-.09,7.1-.34,10.65-.14,1.77-.3,3.55-.51,5.32-.11.89-.22,1.77-.37,2.68-.15.95-.36,1.77-.54,2.66-1.29,7.04-3.58,13.89-6.39,20.47-2.86,6.57-6.37,12.88-10.56,18.7-8.34,11.69-18.9,21.68-30.82,29.66l-3.7-5.68Z"/>
  <polygon class="cls-1" points="143.13 172.06 142.17 168.33 117.74 174.6 132.43 154.1 129.3 151.86 108.46 180.96 143.13 172.06"/>
</svg>