<?xml version="1.0" encoding="UTF-8"?>
<svg xmlns="http://www.w3.org/2000/svg" viewBox="0 0 36.45 35.84">
  <defs>
    <style>
      .cls-1 {
        fill-rule: evenodd;
        stroke-width: 0px;
      }
    </style>
  </defs>
  <path class="cls-1" d="m18.24,0C8.15,0,0,8.21,0,18.38c0,8.12,5.22,15,12.47,17.43.91.18,1.24-.4,1.24-.88,0-.43-.03-1.89-.03-3.41-5.07,1.1-6.13-2.19-6.13-2.19-.82-2.13-2.02-2.68-2.02-2.68-1.66-1.13.12-1.13.12-1.13,1.84.12,2.81,1.89,2.81,1.89,1.63,2.8,4.26,2.01,5.31,1.52.15-1.19.63-2.01,1.15-2.46-4.05-.43-8.3-2.01-8.3-9.07,0-2.01.72-3.65,1.87-4.93-.18-.46-.82-2.34.18-4.87,0,0,1.54-.49,5.01,1.89,1.49-.4,3.02-.61,4.56-.61,1.54,0,3.11.21,4.56.61,3.47-2.37,5.01-1.89,5.01-1.89,1,2.52.36,4.41.18,4.87,1.18,1.28,1.87,2.92,1.87,4.93,0,7.06-4.26,8.61-8.33,9.07.66.58,1.24,1.67,1.24,3.41,0,2.46-.03,4.44-.03,5.05,0,.49.33,1.07,1.24.88,7.25-2.43,12.47-9.31,12.47-17.43.03-10.16-8.15-18.38-18.21-18.38Z"/>
</svg>