<!-- Generator: Adobe Illustrator 24.0.0, SVG Export Plug-In  -->
<svg version="1.1" xmlns="http://www.w3.org/2000/svg" xmlns:xlink="http://www.w3.org/1999/xlink" x="0px" y="0px" width="36.4px"
     height="35.8px" viewBox="0 0 36.4 35.8" style="enable-background:new 0 0 36.4 35.8;" xml:space="preserve">
<style type="text/css">
	.st0{fill-rule:evenodd;clip-rule:evenodd;fill:#FFFFFF;}
</style>
    <defs>
</defs>
    <path class="st0" d="M18.2,0C8.2,0,0,8.2,0,18.4c0,8.1,5.2,15,12.5,17.4c0.9,0.2,1.2-0.4,1.2-0.9c0-0.4,0-1.9,0-3.4
	c-5.1,1.1-6.1-2.2-6.1-2.2c-0.8-2.1-2-2.7-2-2.7c-1.7-1.1,0.1-1.1,0.1-1.1c1.8,0.1,2.8,1.9,2.8,1.9c1.6,2.8,4.3,2,5.3,1.5
	c0.2-1.2,0.6-2,1.1-2.5c-4-0.4-8.3-2-8.3-9.1c0-2,0.7-3.7,1.9-4.9C8.3,12,7.7,10.1,8.7,7.6c0,0,1.5-0.5,5,1.9c1.5-0.4,3-0.6,4.6-0.6
	c1.5,0,3.1,0.2,4.6,0.6c3.5-2.4,5-1.9,5-1.9c1,2.5,0.4,4.4,0.2,4.9c1.2,1.3,1.9,2.9,1.9,4.9c0,7.1-4.3,8.6-8.3,9.1
	c0.7,0.6,1.2,1.7,1.2,3.4c0,2.5,0,4.4,0,5c0,0.5,0.3,1.1,1.2,0.9c7.2-2.4,12.5-9.3,12.5-17.4C36.5,8.2,28.3,0,18.2,0z"/>
</svg>
