<!-- Generator: Adobe Illustrator 24.0.0, SVG Export Plug-In  -->
<svg version="1.1" xmlns="http://www.w3.org/2000/svg" xmlns:xlink="http://www.w3.org/1999/xlink" x="0px" y="0px" width="21.6px"
     height="22.6px" viewBox="0 0 21.6 22.6" style="enable-background:new 0 0 21.6 22.6;" xml:space="preserve">
<style type="text/css">
	.st0{fill:#FFAE0B;}
</style>
    <defs>
</defs>
    <g>
	<path class="st0" d="M7.2,21.6c-1.7-0.7-3-1.5-4.1-2.5c-1.1-1-1.9-2.1-2.4-3.3c-0.5-1.2-0.7-2.6-0.7-4c0.1-1.5,0.4-3,1.1-4.6
		c0.6-1.6,1.4-2.9,2.4-4c1-1.1,2.1-1.9,3.3-2.4S9.4,0,10.8,0c1.4,0,2.9,0.4,4.5,1C16.8,1.6,18,2.4,19,3.4c0.9,1,1.6,2,2.1,3.2
		c0.4,1.2,0.6,2.3,0.6,3.6c0,1.2-0.3,2.4-0.7,3.5c-0.3,0.8-0.7,1.6-1.1,2.3s-0.9,1.5-1.4,2c-0.5,0.6-1.1,1-1.8,1.2
		c-0.7,0.2-1.4,0.1-2.3-0.2c-0.4-0.2-0.8-0.4-1.2-0.7s-0.7-0.7-1-1.1c-0.2-0.4-0.3-0.9-0.2-1.4l-0.1,0c-0.3,0.3-0.6,0.5-1,0.7
		s-0.8,0.3-1.3,0.2c-0.5,0-1.1-0.1-1.7-0.4c-0.7-0.3-1.3-0.7-1.7-1.2c-0.4-0.5-0.7-1.1-0.9-1.7c-0.2-0.6-0.2-1.3-0.1-2.1
		c0.1-0.7,0.3-1.5,0.6-2.3c0.3-0.7,0.7-1.4,1.1-1.9c0.5-0.5,1-0.9,1.6-1.2c0.6-0.3,1.2-0.5,1.8-0.5c0.6-0.1,1.3,0,1.9,0.2
		c0.6,0.2,1,0.4,1.5,0.7c0.4,0.3,0.7,0.6,0.9,0.9C14.9,7.4,15,7.6,15,7.9l0.1,0L15.4,7l1.7,0.7l-3,7.4C14,15.6,14,16,14.1,16.5
		c0.1,0.5,0.4,0.8,0.9,1c0.6,0.2,1.1,0.2,1.5-0.1c0.5-0.3,0.9-0.8,1.3-1.5c0.4-0.7,0.9-1.7,1.4-3c0.3-0.7,0.5-1.5,0.6-2.3
		c0.1-0.8,0.1-1.6-0.1-2.4c-0.1-0.8-0.4-1.5-0.8-2.2c-0.4-0.7-1-1.4-1.7-2c-0.7-0.6-1.6-1.1-2.6-1.5c-1.3-0.5-2.5-0.8-3.7-0.8
		S8.6,1.9,7.6,2.4c-1,0.5-1.9,1.2-2.7,2.1c-0.8,0.9-1.5,2.1-2,3.4C2.3,9.3,2,10.6,1.9,11.8C1.9,13,2,14.2,2.5,15.2
		c0.4,1,1.1,2,2,2.8c0.9,0.8,2.1,1.5,3.4,2.1c0.6,0.2,1.2,0.4,1.8,0.5s1.2,0.2,1.7,0.3c0.5,0,0.9,0.1,1.1,0.1l-0.2,1.7
		c-0.4,0-0.9,0-1.5-0.1c-0.6-0.1-1.2-0.2-1.9-0.4C8.4,22,7.8,21.8,7.2,21.6z M8.9,14.7c0.7,0.3,1.4,0.4,1.9,0.3
		c0.6-0.1,1.1-0.4,1.5-0.9c0.4-0.5,0.9-1.2,1.2-2.1c0.4-0.9,0.5-1.7,0.5-2.3c0-0.6-0.2-1.1-0.6-1.5c-0.4-0.4-0.9-0.7-1.5-1
		C11.4,7,10.8,6.9,10.2,7C9.7,7.2,9.2,7.5,8.7,7.9c-0.4,0.4-0.8,1-1.1,1.6c-0.3,0.7-0.5,1.4-0.5,2.1c-0.1,0.7,0,1.3,0.3,1.8
		C7.7,14,8.2,14.4,8.9,14.7z"/>
</g>
</svg>
