<?xml version="1.0" encoding="UTF-8"?>
<svg xmlns="http://www.w3.org/2000/svg" viewBox="0 0 9.62 19.2">
  <defs>
    <style>
      .cls-1 {
        fill: #6c7e93;
        stroke-width: 0px;
      }

      .cls-2 {
        opacity: .35;
      }
    </style>
  </defs>
  <g class="cls-2">
    <path class="cls-1" d="m8.12,5.45l-.35,2.15H0l.35-2.15h7.77ZM.19,19.2L2.75,3.85c.14-.86.44-1.58.91-2.15.47-.57,1.04-1,1.71-1.28.67-.28,1.37-.43,2.1-.43.54,0,.99.04,1.36.13.37.09.63.17.8.24l-.97,2.17c-.13-.04-.28-.08-.47-.13s-.42-.08-.7-.08c-.65,0-1.14.16-1.47.48-.33.32-.55.79-.66,1.4l-2.49,14.99H.19Z"/>
  </g>
</svg>