<?xml version="1.0" encoding="UTF-8"?>
<svg id="_Слой_1" data-name="Слой 1" xmlns="http://www.w3.org/2000/svg" viewBox="0 0 256.29 98.21">
  <defs>
    <style>
      .cls-1, .cls-2 {
        stroke-width: 0px;
      }

      .cls-2 {
        fill: #fff;
      }
    </style>
  </defs>
  <g>
    <path class="cls-2" d="m48.79,32.05C25.92,36.89,8.2,52.74,0,72.88c15.66,15.09,38.28,22.4,61.15,17.55,22.87-4.84,40.59-20.69,48.79-40.83-15.66-15.09-38.28-22.4-61.15-17.55Z"/>
    <path class="cls-2" d="m195.14,1.48c-22.87,4.84-40.59,20.69-48.79,40.83,15.66,15.09,38.28,22.4,61.15,17.55,22.87-4.84,40.59-20.69,48.79-40.83C240.63,3.95,218.01-3.36,195.14,1.48Z"/>
    <circle class="cls-1" cx="55.33" cy="61.11" r="25.82"/>
    <circle class="cls-1" cx="201.28" cy="30.8" r="25.82"/>
  </g>
  <path class="cls-2" d="m174.9,98.2c16.2.3,31.75-7.46,44.35-17.06,1.51-1.16.02-3.76-1.51-2.59-12.19,9.29-27.15,16.95-42.84,16.65-1.93-.04-1.93,2.96,0,3h0Z"/>
</svg>