<?xml version="1.0" encoding="UTF-8"?>
<svg id="_Слой_1" data-name="Слой 1" xmlns="http://www.w3.org/2000/svg" viewBox="0 0 360.08 337">
  <defs>
    <style>
      .cls-1 {
        opacity: .15;
      }

      .cls-1, .cls-2, .cls-3, .cls-4 {
        fill: #2478ff;
        stroke-width: 0px;
      }

      .cls-2 {
        opacity: .1;
      }

      .cls-4 {
        opacity: .05;
      }

      .cls-5 {
        stroke-linecap: round;
        stroke-width: 12px;
      }

      .cls-5, .cls-6 {
        fill: none;
        stroke: #2478ff;
        stroke-miterlimit: 10;
      }

      .cls-6 {
        stroke-width: 3px;
      }
    </style>
  </defs>
  <rect class="cls-2" x=".01" y="3" width="64.8" height="64.8" rx="12.93" ry="12.93"/>
  <rect class="cls-3" x="16.54" y="26.91" width="17.88" height="17.88" transform="translate(32.84 -7.51) rotate(45.04)"/>
  <polygon class="cls-3" points="39.89 23.22 36.28 26.81 45.32 35.86 36.27 44.9 39.87 48.51 52.52 35.87 39.89 23.22"/>
  <circle class="cls-3" cx="223.82" cy="13" r="13"/>
  <rect class="cls-1" x="103.82" y="6" width="220" height="14" rx="7" ry="7"/>
  <rect class="cls-3" x="103.82" y="6" width="120" height="14" rx="7" ry="7"/>
  <rect class="cls-3" x="103.82" y="40" width="37" height="37" rx="7.67" ry="7.67"/>
  <path class="cls-3" d="m133.15,88c2.58,0,4.67,2.09,4.67,4.67v21.66c0,2.58-2.1,4.67-4.67,4.67h-21.66c-2.58,0-4.67-2.09-4.67-4.67v-21.66c0-2.58,2.1-4.67,4.67-4.67h21.66m0-3h-21.66c-4.24,0-7.67,3.43-7.67,7.67v21.66c0,4.24,3.43,7.67,7.67,7.67h21.66c4.24,0,7.67-3.43,7.67-7.67v-21.66c0-4.24-3.43-7.67-7.67-7.67h0Z"/>
  <rect class="cls-1" x="154.82" y="40" width="169" height="37" rx="7.67" ry="7.67"/>
  <g>
    <path class="cls-3" d="m170.26,64.06l.41-2.51h16.24l-.41,2.51h-16.24Zm1.25-7.45l.41-2.51h16.24l-.41,2.51h-16.24Zm.92,13.19l3.52-21.43h2.51l-3.52,21.43h-2.51Zm7.54,0l3.52-21.43h2.51l-3.52,21.43h-2.51Z"/>
    <path class="cls-3" d="m193.31,69.79v-2.34l7.25-7.51c.77-.82,1.41-1.53,1.92-2.15.51-.62.88-1.21,1.14-1.76.25-.56.38-1.15.38-1.78,0-.71-.17-1.33-.5-1.85-.33-.52-.79-.92-1.37-1.2-.58-.28-1.23-.42-1.96-.42-.77,0-1.44.16-2.01.47-.57.31-1.01.76-1.32,1.33-.31.57-.46,1.24-.46,2.01h-3.09c0-1.3.3-2.45.9-3.42.6-.98,1.42-1.74,2.47-2.28,1.05-.54,2.24-.81,3.57-.81s2.53.27,3.56.8c1.03.53,1.83,1.26,2.41,2.18.58.92.87,1.95.87,3.1,0,.8-.15,1.57-.44,2.33-.3.76-.81,1.61-1.54,2.54s-1.75,2.06-3.06,3.38l-4.26,4.46v.16h9.65v2.77h-14.11Z"/>
    <path class="cls-3" d="m213.58,65.61v-2.62l9.26-14.63h2.06v3.85h-1.31l-6.62,10.49v.17h12.69v2.74h-16.08Zm10.16,4.19v-4.98l.02-1.19v-15.26h3.07v21.43h-3.09Z"/>
    <path class="cls-3" d="m236.69,69.79l9.36-18.5v-.16h-10.82v-2.77h14.17v2.87l-9.32,18.56h-3.38Z"/>
    <path class="cls-3" d="m262.5,70.09c-1.5,0-2.82-.26-3.97-.77s-2.05-1.23-2.69-2.13c-.65-.91-.97-1.94-.96-3.1,0-.91.18-1.74.56-2.51.38-.76.9-1.4,1.55-1.92.66-.51,1.39-.84,2.2-.98v-.13c-1.07-.26-1.92-.83-2.56-1.72-.64-.89-.96-1.91-.95-3.06,0-1.09.28-2.07.87-2.93.59-.86,1.4-1.54,2.43-2.04,1.03-.5,2.21-.74,3.53-.74s2.47.25,3.5.75,1.84,1.18,2.43,2.04c.59.86.89,1.84.9,2.92,0,1.15-.33,2.17-.98,3.06-.65.89-1.49,1.46-2.53,1.72v.13c.8.14,1.53.46,2.17.98.65.51,1.16,1.15,1.55,1.92.39.76.58,1.6.59,2.51,0,1.16-.33,2.19-.98,3.1-.65.91-1.55,1.62-2.7,2.13s-2.46.77-3.95.77Zm0-2.65c.89,0,1.65-.15,2.3-.45.65-.3,1.15-.71,1.51-1.25.36-.53.54-1.16.54-1.88,0-.75-.2-1.41-.58-1.98-.38-.57-.89-1.02-1.54-1.35-.65-.33-1.39-.49-2.23-.49s-1.59.16-2.25.49c-.66.33-1.17.78-1.55,1.35-.38.57-.56,1.23-.55,1.98,0,.72.17,1.34.52,1.88.35.53.86.95,1.51,1.25.66.3,1.43.45,2.32.45Zm0-9.97c.71,0,1.34-.14,1.89-.43.55-.29.99-.68,1.3-1.19.32-.51.48-1.11.49-1.79,0-.67-.17-1.26-.48-1.76-.31-.5-.74-.89-1.29-1.17-.55-.28-1.19-.41-1.92-.41s-1.39.14-1.94.41-.99.66-1.29,1.17c-.31.5-.46,1.09-.45,1.76,0,.68.15,1.28.46,1.79.31.51.75.91,1.3,1.19s1.2.43,1.92.43Z"/>
    <path class="cls-3" d="m276.81,69.79v-21.43h13.29v2.78h-10.06v6.53h9.1v2.77h-9.1v9.34h-3.23Z"/>
    <path class="cls-3" d="m296.73,69.79v-21.43h13.29v2.78h-10.06v6.53h9.1v2.77h-9.1v9.34h-3.23Z"/>
  </g>
  <g>
    <path class="cls-3" d="m160.18,114.79v-21.43h7.64c1.66,0,3.04.29,4.14.86,1.1.57,1.92,1.36,2.46,2.37.54,1.01.82,2.17.82,3.49s-.27,2.46-.82,3.46-1.37,1.77-2.47,2.32c-1.1.55-2.48.83-4.14.83h-5.79v-2.78h5.49c1.05,0,1.9-.15,2.56-.45s1.14-.74,1.45-1.31c.31-.57.46-1.26.46-2.06s-.16-1.51-.47-2.1c-.31-.59-.8-1.05-1.46-1.37s-1.52-.48-2.59-.48h-4.06v18.66h-3.23Zm10.58-9.67l5.29,9.67h-3.68l-5.19-9.67h3.58Z"/>
    <path class="cls-3" d="m185.86,115.12c-1.58,0-2.95-.34-4.09-1.02-1.14-.68-2.02-1.64-2.64-2.88-.62-1.24-.93-2.69-.93-4.36s.31-3.1.93-4.35c.62-1.26,1.48-2.24,2.59-2.94,1.11-.7,2.42-1.06,3.91-1.06.91,0,1.79.15,2.64.45s1.62.77,2.29,1.41c.68.64,1.21,1.47,1.6,2.5.39,1.02.59,2.26.59,3.72v1.11h-12.78v-2.34h9.71c0-.82-.17-1.55-.5-2.19-.33-.64-.8-1.14-1.41-1.51-.6-.37-1.31-.55-2.12-.55-.88,0-1.64.21-2.3.64-.65.43-1.16.99-1.51,1.67-.35.69-.53,1.43-.53,2.23v1.83c0,1.08.19,1.99.57,2.74.38.75.91,1.33,1.6,1.72s1.48.59,2.4.59c.59,0,1.13-.08,1.62-.26s.91-.43,1.27-.77c.36-.34.63-.76.82-1.27l2.96.53c-.24.87-.66,1.63-1.27,2.29-.61.65-1.37,1.16-2.29,1.52-.92.36-1.96.54-3.13.54Z"/>
    <path class="cls-3" d="m196.24,120.82v-22.1h3.06v2.61h.26c.18-.33.44-.72.79-1.16s.82-.83,1.42-1.16c.61-.33,1.41-.5,2.41-.5,1.3,0,2.46.33,3.47.98,1.02.66,1.82,1.6,2.4,2.84.58,1.24.87,2.72.87,4.46s-.29,3.23-.87,4.46-1.37,2.19-2.39,2.86-2.17,1-3.46,1c-.98,0-1.77-.16-2.39-.49-.62-.33-1.1-.71-1.45-1.15s-.62-.83-.81-1.17h-.19v8.53h-3.13Zm3.07-14.06c0,1.13.16,2.12.49,2.97.33.85.8,1.52,1.42,1.99s1.38.72,2.28.72,1.72-.25,2.34-.75c.63-.5,1.1-1.18,1.43-2.04.32-.86.49-1.82.49-2.9s-.16-2.01-.48-2.86c-.32-.84-.79-1.51-1.42-2-.63-.49-1.42-.73-2.36-.73s-1.67.23-2.3.7c-.62.47-1.1,1.12-1.42,1.96-.32.84-.48,1.81-.48,2.93Z"/>
    <path class="cls-3" d="m221.35,115.12c-1.58,0-2.95-.34-4.09-1.02-1.14-.68-2.02-1.64-2.64-2.88-.62-1.24-.93-2.69-.93-4.36s.31-3.1.93-4.35c.62-1.26,1.48-2.24,2.59-2.94,1.11-.7,2.42-1.06,3.91-1.06.91,0,1.79.15,2.64.45s1.62.77,2.29,1.41c.68.64,1.21,1.47,1.6,2.5.39,1.02.59,2.26.59,3.72v1.11h-12.78v-2.34h9.71c0-.82-.17-1.55-.5-2.19-.33-.64-.8-1.14-1.41-1.51-.6-.37-1.31-.55-2.12-.55-.88,0-1.64.21-2.3.64-.65.43-1.16.99-1.51,1.67-.35.69-.53,1.43-.53,2.23v1.83c0,1.08.19,1.99.57,2.74.38.75.91,1.33,1.6,1.72s1.48.59,2.4.59c.59,0,1.13-.08,1.62-.26s.91-.43,1.27-.77c.36-.34.63-.76.82-1.27l2.96.53c-.24.87-.66,1.63-1.27,2.29-.61.65-1.37,1.16-2.29,1.52-.92.36-1.96.54-3.13.54Z"/>
    <path class="cls-3" d="m236.41,115.15c-1.02,0-1.94-.19-2.76-.57-.82-.38-1.47-.93-1.95-1.66-.48-.73-.72-1.62-.72-2.67,0-.91.17-1.65.52-2.24.35-.59.82-1.05,1.41-1.39s1.26-.6,1.99-.77c.73-.17,1.48-.31,2.24-.4.96-.11,1.74-.2,2.34-.28.6-.07,1.04-.19,1.31-.36.27-.17.41-.44.41-.82v-.07c0-.91-.26-1.62-.77-2.12-.51-.5-1.28-.75-2.29-.75s-1.88.23-2.49.7-1.02.98-1.25,1.54l-2.94-.67c.35-.98.86-1.77,1.53-2.37.67-.6,1.45-1.04,2.33-1.32.88-.28,1.8-.41,2.77-.41.64,0,1.32.08,2.05.22.72.15,1.4.42,2.03.82.63.4,1.15.96,1.55,1.7.4.74.61,1.69.61,2.86v10.67h-3.06v-2.2h-.13c-.2.4-.51.8-.91,1.19s-.92.72-1.56.97-1.4.39-2.28.39Zm.68-2.51c.87,0,1.61-.17,2.22-.51.62-.34,1.09-.79,1.41-1.34.32-.55.49-1.15.49-1.78v-2.07c-.11.11-.33.21-.64.31-.32.09-.68.17-1.08.24-.41.07-.8.13-1.18.18-.38.05-.71.1-.96.13-.61.08-1.16.21-1.66.39-.5.18-.9.44-1.19.78-.3.34-.45.79-.45,1.34,0,.77.29,1.36.86,1.75.57.39,1.3.59,2.19.59Z"/>
    <path class="cls-3" d="m256.01,98.72v2.51h-8.78v-2.51h8.78Zm-6.43-3.85h3.13v15.21c0,.61.09,1.06.27,1.37.18.3.42.51.71.62.29.11.61.16.95.16.25,0,.47-.02.66-.05.19-.03.33-.06.44-.08l.57,2.58c-.18.07-.44.14-.77.21s-.75.11-1.26.12c-.82.01-1.59-.13-2.3-.44-.71-.31-1.29-.78-1.73-1.42s-.66-1.45-.66-2.42v-15.85Z"/>
    <path class="cls-3" d="m262.89,108.63v-.2c.01-1.3.14-2.33.39-3.1.25-.77.6-1.39,1.06-1.86.46-.47,1.02-.91,1.66-1.3.42-.26.8-.56,1.13-.89.33-.33.6-.71.79-1.13.2-.42.29-.9.29-1.41,0-.62-.15-1.16-.44-1.61-.29-.45-.68-.8-1.17-1.05-.49-.25-1.02-.37-1.62-.37-.54,0-1.05.11-1.54.33s-.89.57-1.21,1.04-.51,1.08-.55,1.82h-3.18c.05-1.26.37-2.32.95-3.19.59-.87,1.36-1.53,2.33-1.97.97-.45,2.04-.67,3.21-.67,1.28,0,2.41.24,3.37.72.96.48,1.71,1.14,2.25,2,.53.85.8,1.85.8,2.99,0,.78-.12,1.48-.37,2.11s-.59,1.18-1.04,1.67-.99.92-1.62,1.3c-.59.37-1.07.75-1.44,1.15s-.63.87-.8,1.41c-.17.54-.26,1.22-.27,2.02v.2h-2.99Zm1.58,6.36c-.57,0-1.06-.2-1.48-.61-.41-.41-.62-.9-.62-1.48s.21-1.06.62-1.47c.41-.41.9-.61,1.48-.61s1.05.2,1.47.61c.42.41.62.9.62,1.47,0,.38-.1.73-.29,1.05-.19.32-.44.57-.76.76-.31.19-.66.28-1.05.28Z"/>
  </g>
  <path class="cls-6" d="m113.32,104.5c2.33,2,4.67,4,7,6,4.33-4.33,8.67-8.67,13-13"/>
  <ellipse class="cls-4" cx="213.82" cy="313" rx="93" ry="24"/>
  <rect class="cls-3" x="131.62" y="130.04" width="178" height="121" rx="36.73" ry="36.73" transform="translate(22.31 -23.12) rotate(6.32)"/>
  <path class="cls-5" d="m179.18,230.21v82.72c-4.45-3.98-8.9-7.96-13.35-11.94"/>
  <path class="cls-5" d="m255.82,230v82.72c-4.45-3.98-8.9-7.96-13.35-11.94"/>
  <path class="cls-5" d="m307.82,199c3.99-3.05,50.09-39.41,46-90-4.17-51.61-59.04-99.05-130-96"/>
  <path class="cls-5" d="m134.48,180.64c-19.57,2.45-36.15,15.68-42.77,34.12-6.83,19.04-1.92,40.48,12.55,54.8"/>
</svg>