<?xml version="1.0" encoding="UTF-8"?>
<svg id="_Слой_1" data-name="Слой 1" xmlns="http://www.w3.org/2000/svg" xmlns:xlink="http://www.w3.org/1999/xlink" viewBox="0 0 326.47 390.59">
  <defs>
    <style>
      .cls-1 {
        fill: #0a1f3f;
      }

      .cls-1, .cls-2, .cls-3, .cls-4, .cls-5, .cls-6, .cls-7, .cls-8 {
        stroke-width: 0px;
      }

      .cls-2 {
        fill: #8233ff;
      }

      .cls-4, .cls-9 {
        fill: none;
      }

      .cls-10 {
        clip-path: url(#clippath-1);
      }

      .cls-5, .cls-8 {
        fill: #2478ff;
      }

      .cls-6 {
        fill: #fff;
      }

      .cls-11 {
        clip-path: url(#clippath);
      }

      .cls-7 {
        fill: #2cd7ff;
      }

      .cls-8 {
        opacity: .05;
      }

      .cls-9 {
        stroke: #2478ff;
        stroke-linecap: round;
        stroke-miterlimit: 10;
        stroke-width: 12px;
      }
    </style>
    <clipPath id="clippath">
      <rect class="cls-4" x="28.41" y="29.45" width="262" height="66.45" rx="10.52" ry="10.52"/>
    </clipPath>
    <clipPath id="clippath-1">
      <rect class="cls-4" x="28.41" y="104.31" width="262" height="66.45" rx="10.52" ry="10.52"/>
    </clipPath>
  </defs>
  <ellipse class="cls-8" cx="165.41" cy="366.59" rx="93" ry="24"/>
  <rect class="cls-5" x="70.41" y="187.59" width="178" height="121" rx="36.73" ry="36.73" transform="translate(-.67 .43) rotate(-.15)"/>
  <g>
    <path class="cls-6" d="m116.4,198.83c-13.14.04-24.7,6.72-31.53,16.85,6.88,10.1,18.48,16.72,31.62,16.68,13.14-.04,24.7-6.72,31.53-16.85-6.88-10.1-18.48-16.72-31.62-16.68Z"/>
    <path class="cls-3" d="m131.44,205.28c.09-1.18.03-2.33-.14-3.45-4.58-1.93-9.61-3.01-14.89-3-5.64.02-10.98,1.26-15.79,3.47-.03.24-.07.48-.09.72-.62,8.54,5.8,15.96,14.33,16.59,8.54.62,15.96-5.8,16.59-14.33Z"/>
    <path class="cls-6" d="m200.4,198.83c-13.14.04-24.7,6.72-31.53,16.85,6.88,10.1,18.48,16.72,31.62,16.68,13.14-.04,24.7-6.72,31.53-16.85-6.88-10.1-18.48-16.72-31.62-16.68Z"/>
    <path class="cls-3" d="m215.44,205.28c.09-1.18.03-2.33-.14-3.45-4.58-1.93-9.61-3.01-14.89-3-5.64.02-10.98,1.26-15.79,3.47-.03.24-.07.48-.09.72-.62,8.54,5.8,15.96,14.33,16.59,8.54.62,15.96-5.8,16.59-14.33Z"/>
    <path class="cls-3" d="m180.47,248.16c8.06.94,16.4-1.27,22.95-6.06,1.54-1.13.05-3.73-1.51-2.59-6.19,4.53-13.82,6.53-21.44,5.65-.81-.09-1.49.76-1.5,1.5,0,.89.7,1.41,1.5,1.5h0Z"/>
  </g>
  <path class="cls-9" d="m76.32,243.77c-21.34,3.55-42-8.05-49.43-26.97-6.43-16.37-1.93-35.61,11.44-48.32"/>
  <path class="cls-9" d="m187.91,302.09c1.17,20.17,2.33,40.33,3.5,60.5h26"/>
  <path class="cls-9" d="m128.9,299.03l-3.99,61.05c-9.17-.17-18.33-.33-27.5-.5"/>
  <path class="cls-9" d="m241.02,244.42c2.34.03,29.53-.11,45.24-22.65,12.17-17.46,12.47-41.22.68-60.1"/>
  <rect class="cls-1" x="28.41" y="104.31" width="262" height="66.45" rx="10.52" ry="10.52"/>
  <rect class="cls-1" x="28.41" y="29.45" width="262" height="66.45" rx="10.52" ry="10.52"/>
  <rect class="cls-4" x="28.41" y="29.45" width="262" height="66.45" rx="10.52" ry="10.52"/>
  <path class="cls-5" d="m292.97,12.9c1.24-2.87,2.48-5.75,3.72-8.62.31-.72.24-1.64-.54-2.05-.65-.34-1.72-.23-2.05.54-1.24,2.87-2.48,5.75-3.72,8.62-.31.72-.24,1.64.54,2.05.65.34,1.72.23,2.05-.54h0Z"/>
  <path class="cls-5" d="m311.36,30.23c2.4-1.16,4.79-2.33,7.19-3.49.71-.34.95-1.41.54-2.05-.47-.73-1.3-.91-2.05-.54-2.4,1.16-4.79,2.33-7.19,3.49-.71.34-.95,1.41-.54,2.05.47.73,1.3.91,2.05.54h0Z"/>
  <path class="cls-5" d="m317.3,49.83c2.56.31,5.11.62,7.67.93.78.09,1.53-.76,1.5-1.5-.04-.89-.66-1.4-1.5-1.5-2.56-.31-5.11-.62-7.67-.93-.78-.09-1.53.76-1.5,1.5.04.89.66,1.4,1.5,1.5h0Z"/>
  <path class="cls-5" d="m39.76,6.52c-1.03-1.93-2.06-3.85-3.08-5.78-.37-.69-1.39-.97-2.05-.54-.7.45-.93,1.31-.54,2.05,1.03,1.93,2.06,3.85,3.08,5.78.37.69,1.39.97,2.05.54.7-.45.93-1.31.54-2.05h0Z"/>
  <path class="cls-5" d="m14.65,16.92c-1.75-1.42-3.62-2.67-5.62-3.71-.7-.36-1.66-.2-2.05.54-.36.69-.21,1.67.54,2.05.93.48,1.83,1,2.71,1.57.43.28.85.57,1.27.87.21.15.41.31.62.46.16.12-.23-.18-.07-.06.05.04.1.08.15.12.11.09.23.18.34.27.32.26.63.44,1.06.44.37,0,.81-.16,1.06-.44.5-.55.65-1.59,0-2.12h0Z"/>
  <path class="cls-5" d="m9.46,41.25c-2.35-1.75-5.54-2.28-8.35-1.5-.76.21-1.3,1.07-1.05,1.85s1.03,1.27,1.85,1.05c.3-.08.59-.14.9-.2.17-.03.15-.02-.06,0,.08,0,.15-.02.23-.02.15-.01.31-.02.46-.03.31-.01.61,0,.92.02.08,0,.6.03.17.01.13,0,.27.04.4.07.28.05.56.12.84.21.15.04.29.09.44.15.08.03.55.16.17.06.28.07.57.28.82.42.26.16.52.33.76.51.63.47,1.7.12,2.05-.54.42-.79.14-1.55-.54-2.05h0Z"/>
  <g class="cls-11">
    <g>
      <path class="cls-5" d="m51.14,48.75c-.36.61-.87.92-1.52.92s-1.07-.21-1.32-.63c-.33.38-.66.57-.96.57-.39,0-.73-.15-1.02-.46-.29-.32-.43-.67-.43-1.06,0-.74.17-1.39.5-1.94.41-.64.98-.94,1.71-.91.14,0,.26.08.35.2.09.12.14.26.14.4,0,.2-.15.34-.46.43-.45.15-.73.28-.86.39-.31.25-.46.65-.46,1.2,0,.15.05.29.15.43.1.13.2.2.31.2.26,0,.52-.27.77-.81.25-.54.45-.81.6-.81.33,0,.49.22.49.66,0,.07,0,.17-.03.3s-.03.23-.03.3c0,.31.19.46.56.46.23,0,.46-.18.67-.54.19-.32.29-.6.29-.85,0-.71-.06-1.23-.19-1.53-.2-.46-.53-.86-.99-1.21-.49-.36-.97-.54-1.44-.54-.99,0-1.79.42-2.38,1.25-.53.74-.79,1.62-.79,2.62,0,.94.29,1.75.86,2.44.61.72,1.38,1.07,2.31,1.07.46,0,1.14-.2,2.05-.6.33.07.5.27.5.6,0,.35-.35.63-1.06.82-.26.07-.51.11-.76.15-.25.03-.49.05-.73.05-1.18,0-2.19-.46-3.02-1.38-.8-.91-1.2-1.96-1.2-3.15,0-1.3.33-2.43,1-3.4.77-1.08,1.78-1.62,3.01-1.62,1.08,0,1.99.39,2.75,1.17.73.76,1.1,1.69,1.1,2.77,0,.82-.15,1.5-.46,2.04Z"/>
      <path class="cls-5" d="m58.2,52.33c-.16,0-.29-.06-.39-.19l-2.47-3.19-.43.61v2.13c0,.23-.05.4-.17.5-.12.1-.26.15-.42.15-.41,0-.62-.18-.62-.54v-8.7c0-.16.07-.28.2-.36.13-.08.27-.12.42-.12.06,0,.12.02.19.06s.14.09.2.15c.06.06.11.12.16.2.04.07.06.15.05.23v4.45l2.26-2.05c.35-.24.66-.36.91-.36.15,0,.27.07.37.2s.15.27.15.42c0,.16-.72.89-2.15,2.2l2.24,2.87c.18.23.27.44.27.63-.09.49-.34.74-.75.74Z"/>
      <path class="cls-5" d="m66.24,49.49h-3.62c.04,1.06.66,1.59,1.87,1.59.38,0,.72-.02,1.02-.07.3-.05.71-.19,1.23-.43.2-.03.35.07.44.3s-.01.49-.32.79c-.55.42-1.37.63-2.48.63-1.05,0-1.83-.35-2.36-1.05-.47-.62-.71-1.42-.71-2.4,0-1.03.27-1.85.8-2.45.55-.63,1.28-.95,2.16-.95,1.94,0,2.91,1.08,2.91,3.23,0,.54-.32.81-.96.81Zm-2.11-2.88c-.34,0-.68.16-1,.48-.32.32-.49.72-.51,1.19h3.36c-.06-1.11-.67-1.67-1.85-1.67Z"/>
      <path class="cls-5" d="m74.78,47.87l-1.71,4.49c-.08.21-.15.41-.22.59-.07.18-.2.49-.4.94-.2.45-.39.68-.57.71-.07,0-.15,0-.24-.03-.08-.03-.19-.08-.32-.15-.13-.07-.22-.14-.27-.22-.05-.07-.07-.15-.07-.24,0-.11.35-1.04,1.06-2.79-1.37-3.48-2.05-5.3-2.05-5.45,0-.16.2-.24.58-.24.48,0,.78.13.88.38l1.35,3.64,1.3-3.61c.09-.25.31-.38.66-.38.5,0,.75.12.75.35,0,.05-.25.71-.74,1.99Z"/>
      <path class="cls-5" d="m83.43,44.46c-.08.06-.17.07-.28.04-.12-.02-.24-.05-.35-.1-.11-.05-.22-.1-.33-.17-.27-.16-.53-.24-.78-.24-.21,0-.35.06-.45.18-.19.17-.29.5-.31.99v.27c0,.11,0,.24-.01.4h1.53c.17,0,.3.11.4.32.02.05.03.1.04.15,0,.05.02.1.03.16,0,.15-.02.29-.08.43-.07.1-.19.15-.35.15h-1.57v4.59s.02,0,0,.03c0,.25-.05.43-.17.53-.12.1-.27.15-.43.15-.41,0-.61-.25-.61-.71v-4.59h-.66c-.15,0-.26-.05-.33-.15-.08-.14-.13-.28-.13-.43s.04-.29.13-.42c.06-.14.18-.21.33-.21h.66c0-.3.02-.53.02-.68,0-.16,0-.25,0-.28,0-.39.04-.72.13-1,.08-.28.24-.53.48-.75.23-.21.55-.33.98-.33.57-.02,1.04.06,1.44.23.57.25.85.53.86.84.02.24-.05.44-.19.6Z"/>
      <path class="cls-5" d="m92.23,47.14c-.64-.23-1.12-.35-1.44-.35-.95,0-1.78.41-2.5,1.24v3.88c0,.29-.2.43-.59.43-.41,0-.62-.14-.62-.43v-5.71c0-.58.2-.86.62-.86.26,0,.44.12.54.35.02.06.03.16.04.27s.02.26.03.42c.73-.56,1.54-.84,2.41-.84.43,0,.8.07,1.13.21.45.19.67.46.67.82s-.1.53-.29.57Z"/>
      <path class="cls-5" d="m100.25,52.33c-.26,0-.55-.15-.88-.45-.72.27-1.34.4-1.85.4-.71,0-1.31-.16-1.83-.47-.59-.39-.89-.92-.89-1.59,0-.71.33-1.28,1-1.71.57-.37,1.23-.56,1.98-.56.42,0,.9.07,1.44.2v-.46c0-.33-.18-.58-.53-.77-.28-.14-.61-.21-.99-.21-.28,0-.66.08-1.14.25-.49.17-.85.25-1.07.25-.26,0-.39-.22-.39-.66,0-.32.37-.57,1.1-.77.54-.14,1.05-.21,1.52-.21.61,0,1.17.12,1.67.36.58.29.92.72,1,1.28,0-.02-.01.3-.01.96.03.1.04.35.04.74v.47c0,.18,0,.39-.01.63,0,.24-.01.44-.01.58v.26c0,.31.08.55.24.74.17.17.25.31.25.43,0,.19-.21.28-.63.28Zm-1.07-3.07c-.26-.07-.5-.11-.73-.14-.23-.03-.43-.04-.62-.04-.51,0-.93.09-1.25.26-.42.22-.63.56-.63,1.02,0,.26.18.47.53.63.29.1.58.15.89.15.57,0,1.17-.16,1.81-.47v-1.41Z"/>
      <path class="cls-5" d="m109.72,52.03c0,.19-.2.28-.61.28s-.6-.09-.6-.28v-3.68c.01-.48-.02-.81-.08-.98-.12-.34-.4-.5-.82-.47-.55.04-.82.41-.82,1.12v4.01c0,.18-.22.27-.67.27-.36,0-.54-.09-.54-.28v-4.48c0-.26-.1-.46-.3-.61-.17-.15-.39-.22-.64-.22-.29,0-.52.15-.69.46-.17.27-.25.55-.25.83v4c.01.21-.18.32-.58.32s-.6-.11-.62-.32c0-.57-.01-.98-.01-1.25s0-.47,0-.58c0-.11,0-.17,0-.18,0-.02,0-.05,0-.11,0-.05,0-.15,0-.3v-3.23c0-.35.06-.6.19-.75.13-.15.31-.22.55-.22.19,0,.32.08.39.25.03.08.06.17.08.25.03.08.06.16.08.24h.03c.25-.41.58-.61.98-.61.36,0,.64.06.82.18.06.04.25.21.58.53.12-.21.35-.39.68-.52.31-.1.6-.15.88-.15.59,0,1.06.18,1.39.53.2.38.35.66.45.82s.14.59.14,1.28v3.86Z"/>
      <path class="cls-5" d="m116.41,49.49h-3.62c.04,1.06.66,1.59,1.87,1.59.38,0,.72-.02,1.02-.07.3-.05.71-.19,1.23-.43.2-.03.35.07.44.3s-.01.49-.32.79c-.55.42-1.37.63-2.48.63-1.05,0-1.83-.35-2.36-1.05-.47-.62-.71-1.42-.71-2.4,0-1.03.27-1.85.8-2.45.55-.63,1.28-.95,2.16-.95,1.94,0,2.91,1.08,2.91,3.23,0,.54-.32.81-.96.81Zm-2.11-2.88c-.34,0-.68.16-1,.48-.32.32-.49.72-.51,1.19h3.36c-.06-1.11-.67-1.67-1.85-1.67Z"/>
      <path class="cls-5" d="m124.6,51.83c-.49.32-1.05.47-1.69.47-.47,0-.98-.08-1.5-.24-.68-.23-1.02-.54-1.02-.92,0-.15.06-.28.17-.4s.25-.17.4-.17c.07,0,.34.09.82.28.48.19.88.28,1.18.28s.58-.06.82-.18c.31-.15.46-.37.46-.66,0-.36-.23-.61-.68-.75-.24-.05-.48-.09-.72-.14-.24-.05-.48-.09-.72-.14-.61-.16-1.05-.4-1.3-.72-.26-.34-.39-.71-.39-1.1,0-.58.25-1.04.75-1.39.45-.33.97-.5,1.57-.5.46,0,.93.07,1.42.21.67.19,1,.44,1,.75,0,.13-.04.26-.11.38-.08.12-.19.18-.32.18-.2,0-.52-.07-.93-.21-.41-.14-.73-.21-.96-.21-.33,0-.61.05-.86.15-.32.15-.47.37-.47.67,0,.34.27.58.81.7.27.07.54.14.83.21.28.07.56.13.84.2.66.23,1.11.65,1.36,1.24.08.2.11.38.11.56,0,.6-.29,1.09-.86,1.46Z"/>
      <path class="cls-6" d="m138.45,42.84c.12-.08.25-.12.38-.12h.03c.41.02.61.2.61.56v2.38h1.67c.29.02.43.18.43.49-.03.23-.08.42-.15.55-.08.11-.19.17-.32.17h-1.62v2.97c0,.52.05.87.15,1.06.14.25.42.38.85.38.33,0,.55-.05.66-.11l.4-.33c.07-.04.13-.06.21-.06.06,0,.12.01.17.04.07.05.14.12.2.24.06.11.09.24.09.38v.11c-.04.15-.13.27-.27.36-.28.19-.52.31-.74.37s-.46.09-.75.09c-.85,0-1.43-.22-1.73-.63-.31-.43-.46-1.05-.46-1.88v-2.99h-.88c-.1,0-.17-.06-.21-.17-.06-.13-.1-.3-.1-.49,0-.11.03-.23.08-.34.04-.14.13-.21.26-.21h.82v-2.45c0-.16.06-.28.19-.36Z"/>
      <path class="cls-6" d="m150.45,51.43c-.54.62-1.33.93-2.37.93s-1.85-.32-2.42-.95c-.55-.62-.82-1.46-.82-2.51s.26-1.84.78-2.47c.56-.65,1.34-.98,2.36-.98s1.86.32,2.44.96c.52.6.78,1.45.78,2.52s-.25,1.88-.74,2.48Zm-1.04-4.01c-.36-.46-.85-.68-1.45-.68s-1.05.22-1.39.67c-.32.4-.47.9-.47,1.51s.2,1.16.58,1.57c.41.41.92.61,1.53.61.54,0,.97-.23,1.28-.68.28-.4.42-.88.42-1.45,0-.61-.17-1.13-.5-1.55Z"/>
      <path class="cls-6" d="m159.12,47.14c-.64-.23-1.12-.35-1.44-.35-.95,0-1.78.41-2.5,1.24v3.88c0,.29-.2.43-.59.43-.41,0-.62-.14-.62-.43v-5.71c0-.58.2-.86.62-.86.26,0,.44.12.54.35.02.06.03.16.04.27s.02.26.03.42c.73-.56,1.54-.84,2.41-.84.43,0,.8.07,1.13.21.45.19.67.46.67.82s-.1.53-.29.57Z"/>
      <path class="cls-6" d="m166.36,51.87v-3.97c0-.44-.08-.75-.25-.93-.18-.2-.48-.31-.91-.31-.47,0-.94.19-1.39.56-.47.38-.71.8-.71,1.27v3.33c0,.35-.19.53-.58.53-.15,0-.29-.05-.42-.16-.13-.11-.2-.24-.2-.38v-5.73c0-.16.08-.3.25-.43.15-.11.31-.17.47-.17.2,0,.35.1.44.31.03.09.05.19.08.28.03.09.06.19.1.28h0c.12-.18.41-.36.87-.56.45-.19.79-.28,1-.28.88,0,1.52.22,1.93.67.36.41.54,1.07.54,1.98v3.72c0,.3-.2.45-.6.45s-.61-.15-.61-.45Z"/>
      <path class="cls-6" d="m175.51,52.33c-.26,0-.55-.15-.88-.45-.72.27-1.34.4-1.85.4-.71,0-1.31-.16-1.83-.47-.59-.39-.89-.92-.89-1.59,0-.71.33-1.28,1-1.71.57-.37,1.23-.56,1.98-.56.42,0,.9.07,1.44.2v-.46c0-.33-.18-.58-.53-.77-.28-.14-.61-.21-.99-.21-.28,0-.66.08-1.14.25-.49.17-.85.25-1.07.25-.26,0-.39-.22-.39-.66,0-.32.37-.57,1.1-.77.54-.14,1.05-.21,1.52-.21.61,0,1.17.12,1.67.36.58.29.92.72,1,1.28,0-.02-.01.3-.01.96.03.1.04.35.04.74v.47c0,.18,0,.39-.01.63,0,.24-.01.44-.01.58v.26c0,.31.08.55.24.74.17.17.25.31.25.43,0,.19-.21.28-.63.28Zm-1.07-3.07c-.26-.07-.5-.11-.73-.14-.23-.03-.43-.04-.62-.04-.51,0-.93.09-1.25.26-.42.22-.63.56-.63,1.02,0,.26.18.47.53.63.29.1.58.15.89.15.57,0,1.17-.16,1.81-.47v-1.41Z"/>
      <path class="cls-6" d="m184.39,50.96c0,.11-.01.24-.01.38v.47c0,.33-.19.5-.57.52-.22,0-.38-.03-.48-.12-.09-.09-.14-.24-.14-.45-.4.38-.88.57-1.45.57-.94,0-1.71-.33-2.32-.99-.58-.63-.87-1.41-.87-2.34s.29-1.66.86-2.34c.61-.7,1.36-1.05,2.23-1.05.48,0,.99.1,1.52.31v-2.84c0-.16.06-.29.19-.39.13-.1.27-.15.43-.15.39,0,.59.18.6.54v7.15s.01.74.01.74Zm-1.21-3.71c-.48-.29-.95-.43-1.39-.43-.55,0-1.03.21-1.45.65-.42.44-.63.93-.63,1.46,0,.67.21,1.21.63,1.61.44.42.99.61,1.67.58.32,0,.71-.24,1.17-.7v-3.16Z"/>
      <path class="cls-6" d="m192.27,51.43c-.54.62-1.33.93-2.37.93s-1.85-.32-2.42-.95c-.55-.62-.82-1.46-.82-2.51s.26-1.84.78-2.47c.56-.65,1.34-.98,2.36-.98s1.86.32,2.44.96c.52.6.78,1.45.78,2.52s-.25,1.88-.74,2.48Zm-1.04-4.01c-.36-.46-.85-.68-1.45-.68s-1.05.22-1.39.67c-.32.4-.47.9-.47,1.51s.2,1.16.58,1.57c.41.41.92.61,1.53.61.54,0,.97-.23,1.28-.68.28-.4.42-.88.42-1.45,0-.61-.17-1.13-.5-1.55Z"/>
      <path class="cls-6" d="m200.46,48.32h-3.79c-.07,0-.17,0-.31.01-.14,0-.25.01-.31.01-.46,0-.68-.2-.68-.61,0-.14.04-.27.11-.4.08-.15.19-.22.33-.22h4.64c.16,0,.29.06.4.19.11.13.17.27.17.42,0,.36-.19.56-.56.6Z"/>
      <path class="cls-6" d="m208.87,44.46c-.08.06-.17.07-.28.04-.12-.02-.24-.05-.35-.1-.11-.05-.22-.1-.33-.17-.27-.16-.53-.24-.78-.24-.21,0-.35.06-.45.18-.19.17-.29.5-.31.99v.27c0,.11,0,.24-.01.4h1.53c.17,0,.3.11.4.32.02.05.03.1.04.15,0,.05.02.1.03.16,0,.15-.02.29-.08.43-.07.1-.19.15-.35.15h-1.57v4.59s.02,0,0,.03c0,.25-.05.43-.17.53-.12.1-.27.15-.43.15-.41,0-.61-.25-.61-.71v-4.59h-.66c-.15,0-.26-.05-.33-.15-.08-.14-.13-.28-.13-.43s.04-.29.13-.42c.06-.14.18-.21.33-.21h.66c0-.3.02-.53.02-.68,0-.16,0-.25,0-.28,0-.39.04-.72.13-1,.08-.28.24-.53.48-.75.23-.21.55-.33.98-.33.57-.02,1.04.06,1.44.23.57.25.85.53.86.84.02.24-.05.44-.19.6Z"/>
      <path class="cls-6" d="m214.36,42.65c.41,0,.62.13.62.4v6.75c0,.92.22,1.38.65,1.38h.66c.13,0,.24.05.34.16s.14.25.13.44c-.02.41-.21.62-.57.62h-.49c-.57,0-1.03-.18-1.37-.53-.38-.33-.56-.98-.56-1.95,0,.57,0-1.72,0-6.86,0-.27.2-.4.59-.4Z"/>
      <path class="cls-6" d="m225.69,52.33c-.26,0-.55-.15-.88-.45-.72.27-1.34.4-1.85.4-.71,0-1.31-.16-1.83-.47-.59-.39-.89-.92-.89-1.59,0-.71.33-1.28,1-1.71.57-.37,1.23-.56,1.98-.56.42,0,.9.07,1.44.2v-.46c0-.33-.18-.58-.53-.77-.28-.14-.61-.21-.99-.21-.28,0-.66.08-1.14.25-.49.17-.85.25-1.07.25-.26,0-.39-.22-.39-.66,0-.32.37-.57,1.1-.77.54-.14,1.05-.21,1.52-.21.61,0,1.17.12,1.67.36.58.29.92.72,1,1.28,0-.02-.01.3-.01.96.03.1.04.35.04.74v.47c0,.18,0,.39-.01.63,0,.24-.01.44-.01.58v.26c0,.31.08.55.24.74.17.17.25.31.25.43,0,.19-.21.28-.63.28Zm-1.07-3.07c-.26-.07-.5-.11-.73-.14-.23-.03-.43-.04-.62-.04-.51,0-.93.09-1.25.26-.42.22-.63.56-.63,1.02,0,.26.18.47.53.63.29.1.58.15.89.15.57,0,1.17-.16,1.81-.47v-1.41Z"/>
      <path class="cls-6" d="m233.31,51.83c-.49.32-1.05.47-1.69.47-.47,0-.98-.08-1.5-.24-.68-.23-1.02-.54-1.02-.92,0-.15.06-.28.17-.4s.25-.17.4-.17c.07,0,.34.09.82.28.48.19.88.28,1.18.28s.58-.06.82-.18c.31-.15.46-.37.46-.66,0-.36-.23-.61-.68-.75-.24-.05-.48-.09-.72-.14-.24-.05-.48-.09-.72-.14-.61-.16-1.05-.4-1.3-.72-.26-.34-.39-.71-.39-1.1,0-.58.25-1.04.75-1.39.45-.33.97-.5,1.57-.5.46,0,.93.07,1.42.21.67.19,1,.44,1,.75,0,.13-.04.26-.11.38-.08.12-.19.18-.32.18-.2,0-.52-.07-.93-.21-.41-.14-.73-.21-.96-.21-.33,0-.61.05-.86.15-.32.15-.47.37-.47.67,0,.34.27.58.81.7.27.07.54.14.83.21.28.07.56.13.84.2.66.23,1.11.65,1.36,1.24.08.2.11.38.11.56,0,.6-.29,1.09-.86,1.46Z"/>
      <path class="cls-6" d="m242.84,51.78c0,.21-.05.35-.14.41-.09.06-.24.09-.43.09-.13,0-.27-.05-.42-.15-.15-.1-.22-.21-.22-.35v-4.3c0-.55-.28-.82-.85-.82-.61,0-1.09.1-1.44.29-.17.09-.33.21-.47.34-.15.13-.32.33-.5.59v4.01c0,.21-.07.34-.21.39-.14.05-.29.07-.45.07-.13,0-.26-.04-.38-.13-.12-.08-.18-.2-.18-.33v-8.96c0-.17.06-.3.18-.39.12-.09.26-.14.43-.14.18,0,.32.04.43.11.11.07.17.19.17.35v3.41c.36-.25.72-.45,1.07-.6.35-.15.75-.22,1.2-.22.71,0,1.25.18,1.63.54s.57.91.57,1.64v4.14Z"/>
      <path class="cls-5" d="m258.55,54.05c-.44,0-.84-.11-1.2-.33-.48-.29-.8-.72-.96-1.31-.09-.33-.12-.87-.1-1.64-.07-.72-.16-1.27-.29-1.63-.14-.39-.36-.65-.65-.78-.12-.02-.24-.04-.35-.07-.11-.03-.23-.06-.35-.08-.2-.06-.31-.2-.31-.45s.11-.4.32-.46c.12-.02.24-.04.35-.07.11-.03.23-.06.35-.08.3-.13.52-.4.67-.81.06-.18.12-.43.17-.77.05-.34.08-.76.1-1.26.04-.88.17-1.51.39-1.9.33-.55.94-.82,1.84-.82.31,0,.46.2.46.61,0,.25-.14.42-.43.52-.44.15-.67.24-.71.28-.28.21-.45.6-.5,1.17,0,.07-.02.22-.02.44,0,.22,0,.51,0,.89,0,.56-.05.98-.14,1.25-.16.44-.44.74-.84.91.46.16.77.53.91,1.13.09.33.12.95.07,1.85.07.72.17,1.22.28,1.48.13.31.33.52.61.66.1.04.21.07.31.1.1.03.2.07.31.1.19.08.28.26.28.53,0,.37-.18.56-.54.56Z"/>
      <path class="cls-6" d="m75.82,62.49c0,.87-.07,1.61-.2,2.23s-.33,1.12-.6,1.51c-.26.39-.59.67-.99.85-.39.18-.85.26-1.37.26-1.01,0-1.76-.41-2.24-1.22-.48-.81-.72-2.04-.72-3.68,0-1.11.25-2.09.74-2.95.3-.51.64-.9,1.02-1.17.38-.27.84-.4,1.37-.4.49,0,.94.12,1.33.37.39.25.73.6,1,1.08.22.39.39.86.51,1.42s.17,1.1.17,1.63v.07Zm-1.21-.12c0-1.08-.14-1.89-.42-2.42-.28-.53-.71-.8-1.3-.8-.33,0-.63.1-.91.29-.28.19-.52.49-.71.89-.16.32-.26.66-.31,1.02-.05.37-.07.73-.07,1.1,0,1.28.14,2.21.42,2.8.28.59.72.88,1.34.88.65,0,1.14-.29,1.46-.88s.49-1.52.49-2.8v-.08Z"/>
      <path class="cls-6" d="m80.84,60.29c-.35.33-.79.49-1.31.49s-.93-.17-1.3-.5c-.35-.33-.53-.75-.53-1.25s.19-.9.56-1.24c.37-.36.79-.54,1.27-.54.52,0,.96.17,1.31.52.36.35.54.78.54,1.28s-.18.94-.54,1.25Zm.85,2.05c-.69,1.44-1.23,2.57-1.63,3.39s-.66,1.34-.79,1.57c-.1.17-.2.25-.31.25-.08,0-.17-.02-.25-.06-.08-.04-.16-.09-.23-.15s-.13-.13-.17-.2c-.05-.07-.07-.15-.07-.24,0-.09.7-1.6,2.1-4.52.72-1.5,1.29-2.65,1.69-3.46s.65-1.28.74-1.41c.09-.15.22-.22.38-.22s.3.05.43.15c.13.1.2.23.2.39,0,.09-.69,1.59-2.08,4.49Zm-1.53-3.87c-.17-.16-.37-.24-.6-.24-.21,0-.41.08-.58.25s-.26.36-.26.57c0,.22.08.42.25.59s.36.25.58.25c.24,0,.44-.08.61-.24.16-.16.24-.36.24-.6s-.08-.43-.25-.58Zm3.83,8.52c-.35.33-.79.49-1.3.49-.48,0-.91-.17-1.27-.5-.36-.34-.54-.76-.54-1.25,0-.46.19-.87.56-1.21.37-.36.79-.54,1.25-.54s.9.18,1.27.53c.37.34.56.75.56,1.23,0,.51-.18.93-.53,1.27Zm-.66-1.81c-.17-.17-.38-.25-.61-.25-.21,0-.4.09-.57.26-.17.17-.25.36-.25.58,0,.23.08.43.24.58.16.16.35.24.58.24.25,0,.46-.07.62-.22.16-.15.24-.35.24-.6,0-.22-.09-.42-.26-.58Z"/>
      <path class="cls-5" d="m99.67,69.18c-.44,0-.84-.11-1.2-.33-.48-.29-.8-.72-.96-1.31-.09-.33-.12-.87-.1-1.64-.07-.72-.16-1.27-.29-1.63-.14-.39-.36-.65-.65-.78-.12-.02-.24-.04-.35-.07-.11-.03-.23-.06-.35-.08-.2-.06-.31-.2-.31-.45s.11-.4.32-.46c.12-.02.24-.04.35-.07.11-.03.23-.06.35-.08.3-.13.52-.4.67-.81.06-.18.12-.43.17-.77.05-.34.08-.76.1-1.26.04-.88.17-1.51.39-1.9.33-.55.94-.82,1.84-.82.31,0,.46.2.46.61,0,.25-.14.42-.43.52-.44.15-.67.24-.71.28-.28.21-.45.6-.5,1.17,0,.07-.02.22-.02.44,0,.22,0,.51,0,.89,0,.56-.05.98-.14,1.25-.16.44-.44.74-.84.91.46.16.77.53.91,1.13.09.33.12.95.07,1.85.07.72.17,1.22.28,1.48.13.31.33.52.61.66.1.04.21.07.31.1.1.03.2.07.31.1.19.08.28.26.28.53,0,.37-.18.56-.54.56Z"/>
      <path class="cls-2" d="m96.64,73.11c.12-.08.25-.12.38-.12h.03c.41.02.61.2.61.56v2.38h1.67c.29.02.43.18.43.49-.03.23-.08.42-.15.55-.08.11-.19.17-.32.17h-1.62v2.97c0,.52.05.87.15,1.06.14.25.42.38.85.38.33,0,.55-.05.66-.11l.4-.33c.07-.04.13-.06.21-.06.06,0,.12.01.17.04.07.05.14.12.2.24.06.11.09.24.09.38v.11c-.04.15-.13.27-.27.36-.28.19-.52.31-.74.37s-.46.09-.75.09c-.85,0-1.43-.22-1.73-.63-.31-.43-.46-1.05-.46-1.88v-2.99h-.88c-.1,0-.17-.06-.21-.17-.06-.13-.1-.3-.1-.49,0-.11.03-.23.08-.34.04-.14.13-.21.26-.21h.82v-2.45c0-.16.06-.28.19-.36Z"/>
      <path class="cls-2" d="m108.95,77.4c-.64-.23-1.12-.35-1.44-.35-.95,0-1.78.41-2.5,1.24v3.88c0,.29-.2.43-.59.43-.41,0-.62-.14-.62-.43v-5.71c0-.58.2-.86.62-.86.26,0,.44.12.54.35.02.06.03.16.04.27s.02.26.03.42c.73-.56,1.54-.84,2.41-.84.43,0,.8.07,1.13.21.45.19.67.46.67.82s-.1.53-.29.57Z"/>
      <path class="cls-2" d="m116.98,82.6c-.26,0-.55-.15-.88-.45-.72.27-1.34.4-1.85.4-.71,0-1.31-.16-1.83-.47-.59-.39-.89-.92-.89-1.59,0-.71.33-1.28,1-1.71.57-.37,1.23-.56,1.98-.56.42,0,.9.07,1.44.2v-.46c0-.33-.18-.58-.53-.77-.28-.14-.61-.21-.99-.21-.28,0-.66.08-1.14.25-.49.17-.85.25-1.07.25-.26,0-.39-.22-.39-.66,0-.32.37-.57,1.1-.77.54-.14,1.05-.21,1.52-.21.61,0,1.17.12,1.67.36.58.29.92.72,1,1.28,0-.02-.01.3-.01.96.03.1.04.35.04.74v.47c0,.18,0,.39-.01.63,0,.24-.01.44-.01.58v.26c0,.31.08.55.24.74.17.17.25.31.25.43,0,.19-.21.28-.63.28Zm-1.07-3.07c-.26-.07-.5-.11-.73-.14-.23-.03-.43-.04-.62-.04-.51,0-.93.09-1.25.26-.42.22-.63.56-.63,1.02,0,.26.18.47.53.63.29.1.58.15.89.15.57,0,1.17-.16,1.81-.47v-1.41Z"/>
      <path class="cls-2" d="m124.54,82.14v-3.97c0-.44-.08-.75-.25-.93-.18-.2-.48-.31-.91-.31-.47,0-.94.19-1.39.56-.47.38-.71.8-.71,1.27v3.33c0,.35-.19.53-.58.53-.15,0-.29-.05-.42-.16-.13-.11-.2-.24-.2-.38v-5.73c0-.16.08-.3.25-.43.15-.11.31-.17.47-.17.2,0,.35.1.44.31.03.09.05.19.08.28.03.09.06.19.1.28h0c.12-.18.41-.36.87-.56.45-.19.79-.28,1-.28.88,0,1.52.22,1.93.67.36.41.54,1.07.54,1.98v3.72c0,.3-.2.45-.6.45s-.61-.15-.61-.45Z"/>
      <path class="cls-2" d="m132.97,82.1c-.49.32-1.05.47-1.69.47-.47,0-.98-.08-1.5-.24-.68-.23-1.02-.54-1.02-.92,0-.15.06-.28.17-.4s.25-.17.4-.17c.07,0,.34.09.82.28.48.19.88.28,1.18.28s.58-.06.82-.18c.31-.15.46-.37.46-.66,0-.36-.23-.61-.68-.75-.24-.05-.48-.09-.72-.14-.24-.05-.48-.09-.72-.14-.61-.16-1.05-.4-1.3-.72-.26-.34-.39-.71-.39-1.1,0-.58.25-1.04.75-1.39.45-.33.97-.5,1.57-.5.46,0,.93.07,1.42.21.67.19,1,.44,1,.75,0,.13-.04.26-.11.38-.08.12-.19.18-.32.18-.2,0-.52-.07-.93-.21-.41-.14-.73-.21-.96-.21-.33,0-.61.05-.86.15-.32.15-.47.37-.47.67,0,.34.27.58.81.7.27.07.54.14.83.21.28.07.56.13.84.2.66.23,1.11.65,1.36,1.24.08.2.11.38.11.56,0,.6-.29,1.09-.86,1.46Z"/>
      <path class="cls-2" d="m141.97,74.73c-.08.06-.17.07-.28.04-.12-.02-.24-.05-.35-.1-.11-.05-.22-.1-.33-.17-.27-.16-.53-.24-.78-.24-.21,0-.35.06-.45.18-.19.17-.29.5-.31.99v.27c0,.11,0,.24-.01.4h1.53c.17,0,.3.11.4.32.02.05.03.1.04.15,0,.05.02.1.03.16,0,.15-.02.29-.08.43-.07.1-.19.15-.35.15h-1.57v4.59s.02,0,0,.03c0,.25-.05.43-.17.53-.12.1-.27.15-.43.15-.41,0-.61-.25-.61-.71v-4.59h-.66c-.15,0-.26-.05-.33-.15-.08-.14-.13-.28-.13-.43s.04-.29.13-.42c.06-.14.18-.21.33-.21h.66c0-.3.02-.53.02-.68,0-.16,0-.25,0-.28,0-.39.04-.72.13-1,.08-.28.24-.53.48-.75.23-.21.55-.33.98-.33.57-.02,1.04.06,1.44.23.57.25.85.53.86.84.02.24-.05.44-.19.6Z"/>
      <path class="cls-2" d="m150.45,81.7c-.54.62-1.33.93-2.37.93s-1.85-.32-2.42-.95c-.55-.62-.82-1.46-.82-2.51s.26-1.84.78-2.47c.56-.65,1.34-.98,2.36-.98s1.86.32,2.44.96c.52.6.78,1.45.78,2.52s-.25,1.88-.74,2.48Zm-1.04-4.01c-.36-.46-.85-.68-1.45-.68s-1.05.22-1.39.67c-.32.4-.47.9-.47,1.51s.2,1.16.58,1.57c.41.41.92.61,1.53.61.54,0,.97-.23,1.28-.68.28-.4.42-.88.42-1.45,0-.61-.17-1.13-.5-1.55Z"/>
      <path class="cls-2" d="m159.12,77.4c-.64-.23-1.12-.35-1.44-.35-.95,0-1.78.41-2.5,1.24v3.88c0,.29-.2.43-.59.43-.41,0-.62-.14-.62-.43v-5.71c0-.58.2-.86.62-.86.26,0,.44.12.54.35.02.06.03.16.04.27s.02.26.03.42c.73-.56,1.54-.84,2.41-.84.43,0,.8.07,1.13.21.45.19.67.46.67.82s-.1.53-.29.57Z"/>
      <path class="cls-2" d="m168.25,82.3c0,.19-.2.28-.61.28s-.6-.09-.6-.28v-3.68c.01-.48-.02-.81-.08-.98-.12-.34-.4-.5-.82-.47-.55.04-.82.41-.82,1.12v4.01c0,.18-.22.27-.67.27-.36,0-.54-.09-.54-.28v-4.48c0-.26-.1-.46-.3-.61-.17-.15-.39-.22-.64-.22-.29,0-.52.15-.69.46-.17.27-.25.55-.25.83v4c.01.21-.18.32-.58.32s-.6-.11-.62-.32c0-.57-.01-.98-.01-1.25s0-.47,0-.58c0-.11,0-.17,0-.18,0-.02,0-.05,0-.11,0-.05,0-.15,0-.3v-3.23c0-.35.06-.6.19-.75.13-.15.31-.22.55-.22.19,0,.32.08.39.25.03.08.06.17.08.25.03.08.06.16.08.24h.03c.25-.41.58-.61.98-.61.36,0,.64.06.82.18.06.04.25.21.58.53.12-.21.35-.39.68-.52.31-.1.6-.15.88-.15.59,0,1.06.18,1.39.53.2.38.35.66.45.82s.14.59.14,1.28v3.86Z"/>
      <path class="cls-2" d="m174.14,77.47c-.06.14-.14.27-.24.38s-.22.2-.36.26-.28.1-.43.1c-.32,0-.58-.11-.8-.34-.22-.23-.33-.51-.33-.84,0-.15.03-.3.09-.45s.14-.28.24-.39c.1-.11.22-.2.36-.27s.28-.1.44-.1.3.04.44.1.25.16.36.27c.1.11.18.24.24.38.06.14.09.29.09.45s-.03.31-.09.45Zm-.27,4.13c-.23.23-.49.35-.77.35-.14,0-.28-.03-.42-.09-.14-.06-.26-.14-.36-.25-.1-.11-.19-.23-.25-.36-.06-.13-.1-.27-.1-.41,0-.27.12-.53.36-.79.23-.26.49-.39.77-.39.16,0,.3.03.44.1.13.06.25.15.36.26s.18.24.24.38c.06.14.09.29.09.44,0,.27-.12.53-.36.77Z"/>
      <path class="cls-7" d="m192.57,77.4c-.64-.23-1.12-.35-1.44-.35-.95,0-1.78.41-2.5,1.24v3.88c0,.29-.2.43-.59.43-.41,0-.62-.14-.62-.43v-5.71c0-.58.2-.86.62-.86.26,0,.44.12.54.35.02.06.03.16.04.27s.02.26.03.42c.73-.56,1.54-.84,2.41-.84.43,0,.8.07,1.13.21.45.19.67.46.67.82s-.1.53-.29.57Z"/>
      <path class="cls-7" d="m200.63,81.7c-.54.62-1.33.93-2.37.93s-1.85-.32-2.42-.95c-.55-.62-.82-1.46-.82-2.51s.26-1.84.78-2.47c.56-.65,1.34-.98,2.36-.98s1.86.32,2.44.96c.52.6.78,1.45.78,2.52s-.25,1.88-.74,2.48Zm-1.04-4.01c-.36-.46-.85-.68-1.45-.68s-1.05.22-1.39.67c-.32.4-.47.9-.47,1.51s.2,1.16.58,1.57c.41.41.92.61,1.53.61.54,0,.97-.23,1.28-.68.28-.4.42-.88.42-1.45,0-.61-.17-1.13-.5-1.55Z"/>
      <path class="cls-7" d="m205.35,73.11c.12-.08.25-.12.38-.12h.03c.41.02.61.2.61.56v2.38h1.67c.29.02.43.18.43.49-.03.23-.08.42-.15.55-.08.11-.19.17-.32.17h-1.62v2.97c0,.52.05.87.15,1.06.14.25.42.38.85.38.33,0,.55-.05.66-.11l.4-.33c.07-.04.13-.06.21-.06.06,0,.12.01.17.04.07.05.14.12.2.24.06.11.09.24.09.38v.11c-.04.15-.13.27-.27.36-.28.19-.52.31-.74.37s-.46.09-.75.09c-.85,0-1.43-.22-1.73-.63-.31-.43-.46-1.05-.46-1.88v-2.99h-.88c-.1,0-.17-.06-.21-.17-.06-.13-.1-.3-.1-.49,0-.11.03-.23.08-.34.04-.14.13-.21.26-.21h.82v-2.45c0-.16.06-.28.19-.36Z"/>
      <path class="cls-7" d="m217.32,82.6c-.26,0-.55-.15-.88-.45-.72.27-1.34.4-1.85.4-.71,0-1.31-.16-1.83-.47-.59-.39-.89-.92-.89-1.59,0-.71.33-1.28,1-1.71.57-.37,1.23-.56,1.98-.56.42,0,.9.07,1.44.2v-.46c0-.33-.18-.58-.53-.77-.28-.14-.61-.21-.99-.21-.28,0-.66.08-1.14.25-.49.17-.85.25-1.07.25-.26,0-.39-.22-.39-.66,0-.32.37-.57,1.1-.77.54-.14,1.05-.21,1.52-.21.61,0,1.17.12,1.67.36.58.29.92.72,1,1.28,0-.02-.01.3-.01.96.03.1.04.35.04.74v.47c0,.18,0,.39-.01.63,0,.24-.01.44-.01.58v.26c0,.31.08.55.24.74.17.17.25.31.25.43,0,.19-.21.28-.63.28Zm-1.07-3.07c-.26-.07-.5-.11-.73-.14-.23-.03-.43-.04-.62-.04-.51,0-.93.09-1.25.26-.42.22-.63.56-.63,1.02,0,.26.18.47.53.63.29.1.58.15.89.15.57,0,1.17-.16,1.81-.47v-1.41Z"/>
      <path class="cls-7" d="m222.07,73.11c.12-.08.25-.12.38-.12h.03c.41.02.61.2.61.56v2.38h1.67c.29.02.43.18.43.49-.03.23-.08.42-.15.55-.08.11-.19.17-.32.17h-1.62v2.97c0,.52.05.87.15,1.06.14.25.42.38.85.38.33,0,.55-.05.66-.11l.4-.33c.07-.04.13-.06.21-.06.06,0,.12.01.17.04.07.05.14.12.2.24.06.11.09.24.09.38v.11c-.04.15-.13.27-.27.36-.28.19-.52.31-.74.37s-.46.09-.75.09c-.85,0-1.43-.22-1.73-.63-.31-.43-.46-1.05-.46-1.88v-2.99h-.88c-.1,0-.17-.06-.21-.17-.06-.13-.1-.3-.1-.49,0-.11.03-.23.08-.34.04-.14.13-.21.26-.21h.82v-2.45c0-.16.06-.28.19-.36Z"/>
      <path class="cls-7" d="m233.48,79.76h-3.62c.04,1.06.66,1.59,1.87,1.59.38,0,.72-.02,1.02-.07.3-.05.71-.19,1.23-.43.2-.03.35.07.44.3s-.01.49-.32.79c-.55.42-1.37.63-2.48.63-1.05,0-1.83-.35-2.36-1.05-.47-.62-.71-1.42-.71-2.4,0-1.03.27-1.85.8-2.45.55-.63,1.28-.95,2.16-.95,1.94,0,2.91,1.08,2.91,3.23,0,.54-.32.81-.96.81Zm-2.11-2.88c-.34,0-.68.16-1,.48-.32.32-.49.72-.51,1.19h3.36c-.06-1.11-.67-1.67-1.85-1.67Z"/>
      <path class="cls-5" d="m241.07,72.21c.2.08.31.26.35.52,0,.12-.02.22-.08.31-1.25,1.43-1.87,3.17-1.85,5.21.02,2.03.65,3.62,1.88,4.79.13.1.19.22.17.36,0,.12-.06.23-.15.32-.09.09-.19.15-.31.17-.13.02-.25-.02-.38-.12-.73-.58-1.3-1.38-1.69-2.42-.19-.49-.33-1.01-.42-1.56-.11-.62-.16-1.18-.15-1.69,0-.52.06-1.09.17-1.7.21-1.14.61-2.15,1.18-3.01.29-.45.62-.82,1-1.13.08-.08.18-.09.28-.04Z"/>
      <path class="cls-6" d="m249.78,82.48h-3.14c-.33,0-.49-.18-.49-.56,0-.43.3-.65.89-.65.09,0,.22,0,.39.01.17,0,.28,0,.33-.01v-5.5c-.42.6-.76.9-1.02.9-.36,0-.54-.18-.54-.53,0-.23.08-.45.25-.64.08-.08.17-.17.25-.25.08-.08.17-.16.25-.24.12-.19.24-.38.35-.57.11-.19.22-.38.32-.57.32-.53.61-.79.88-.79.12,0,.23.05.33.15.1.1.15.21.15.33v7.71h.74c.54,0,.81.22.81.65.02.39-.23.57-.75.56Z"/>
      <path class="cls-6" d="m256.43,82.56c-.7,0-1.23-.14-1.61-.42-.38-.28-.66-.74-.86-1.4-.03-.09-.04-.17-.04-.22,0-.12.06-.23.17-.33.11-.1.23-.15.35-.15.19,0,.36.11.52.33.23.33.4.54.5.63.28.22.66.33,1.14.33,1.18,0,1.77-.62,1.77-1.87,0-.55-.2-1.01-.59-1.36-.38-.34-.85-.51-1.41-.51-.31,0-.65.13-1.03.39-.37.26-.67.39-.89.39-.28,0-.42-.21-.42-.64v-4.07c0-.16.07-.29.2-.39s.27-.15.43-.15h4.07c.27,0,.4.23.4.68,0,.36-.14.54-.43.54h-3.46v2.35c.45-.2.96-.31,1.53-.31.76,0,1.42.3,1.96.9.52.59.78,1.28.78,2.06,0,2.13-1.03,3.2-3.09,3.2Z"/>
      <path class="cls-6" d="m268.01,81.22c0,.11-.01.24-.01.38v.47c0,.33-.19.5-.57.52-.22,0-.38-.03-.48-.12-.09-.09-.14-.24-.14-.45-.4.38-.88.57-1.45.57-.94,0-1.71-.33-2.32-.99-.58-.63-.87-1.41-.87-2.34s.29-1.66.86-2.34c.61-.7,1.36-1.05,2.23-1.05.48,0,.99.1,1.52.31v-2.84c0-.16.06-.29.19-.39.13-.1.27-.15.43-.15.39,0,.59.18.6.54v7.15s.01.74.01.74Zm-1.21-3.71c-.48-.29-.95-.43-1.39-.43-.55,0-1.03.21-1.45.65-.42.44-.63.93-.63,1.46,0,.67.21,1.21.63,1.61.44.42.99.61,1.67.58.32,0,.71-.24,1.17-.7v-3.16Z"/>
      <path class="cls-6" d="m275.29,79.76h-3.62c.04,1.06.66,1.59,1.87,1.59.38,0,.72-.02,1.02-.07.3-.05.71-.19,1.23-.43.2-.03.35.07.44.3s-.01.49-.32.79c-.55.42-1.37.63-2.48.63-1.05,0-1.83-.35-2.36-1.05-.47-.62-.71-1.42-.71-2.4,0-1.03.27-1.85.8-2.45.55-.63,1.28-.95,2.16-.95,1.94,0,2.91,1.08,2.91,3.23,0,.54-.32.81-.96.81Zm-2.11-2.88c-.34,0-.68.16-1,.48-.32.32-.49.72-.51,1.19h3.36c-.06-1.11-.67-1.67-1.85-1.67Z"/>
      <path class="cls-6" d="m284.89,82.16c0,.94-.31,1.73-.92,2.36-.61.64-1.38.96-2.3.97-.5-.03-1.05-.07-1.65-.11-.55-.1-.96-.24-1.23-.4-.27-.17-.34-.41-.22-.74.11-.29.32-.42.61-.38.3.03.58.11.84.23.55.1,1,.15,1.37.15.79,0,1.39-.24,1.8-.71.37-.46.53-1.03.49-1.73-.64.46-1.35.68-2.12.68-.53,0-1.04-.16-1.52-.47-.46-.32-.8-.73-1.02-1.24-.19-.47-.28-1.02-.28-1.63,0-.94.26-1.72.78-2.36.55-.66,1.28-.99,2.18-.99.72,0,1.38.21,1.98.64-.02-.42.19-.63.62-.63.37,0,.56.2.57.6,0,.55.01,1.1.01,1.64v4.11Zm-1.21-4.39c-.57-.46-1.19-.7-1.88-.7-1.18,0-1.77.71-1.77,2.13s.54,2.1,1.63,2.1c.49,0,.94-.14,1.35-.42.45-.32.67-.72.67-1.2v-1.92Z"/>
      <path class="cls-5" d="m290.4,73.38c.58.85.98,1.86,1.18,3.01.05.27.08.55.1.83.02.28.04.57.05.87,0,.33,0,.63-.03.91-.02.28-.05.54-.08.77-.2,1.12-.58,2.1-1.16,2.93-.27.39-.61.74-1.03,1.06-.12.09-.24.13-.35.12-.11-.02-.21-.07-.3-.17-.09-.09-.13-.2-.13-.32-.03-.15.01-.27.12-.36.63-.59,1.11-1.29,1.44-2.12.16-.42.28-.85.36-1.3.08-.45.12-.91.13-1.38,0-2.04-.62-3.78-1.9-5.21-.05-.07-.07-.14-.07-.2,0-.05,0-.08.01-.11.03-.25.14-.42.35-.52.09-.04.18-.02.25.04.42.35.77.73,1.05,1.13Z"/>
      <path class="cls-5" d="m299.52,77.52c-.06.14-.14.26-.25.37s-.23.19-.37.26c-.14.07-.28.1-.43.1-.16,0-.31-.03-.45-.1-.14-.06-.26-.15-.37-.26s-.19-.23-.26-.37c-.06-.14-.1-.29-.1-.45,0-.3.12-.58.36-.84.23-.26.5-.39.81-.39.16,0,.31.03.45.1.14.07.26.16.36.27s.18.24.24.39c.06.15.09.3.09.46s-.03.31-.09.45Zm.13,4.71c-.19.64-.43,1.06-.72,1.27-.28.2-.75.3-1.41.31-.13-.08-.2-.21-.2-.38,0-.15.05-.29.15-.42h.15c.71.01,1.11-.28,1.21-.86-.43-.13-.73-.25-.92-.36-.31-.2-.46-.48-.46-.82,0-.54.4-.81,1.21-.81.34,0,.62.14.82.43.18.26.26.57.26.92,0,.19-.04.43-.11.72Z"/>
      <path class="cls-2" d="m100.42,96.89c-.08.13-.2.25-.36.37s-.37.22-.66.31c-.36.09-.72.14-1.07.14-1.09,0-1.92-.31-2.51-.92-.56-.61-.84-1.46-.84-2.55,0-1,.27-1.81.82-2.41.58-.6,1.36-.91,2.36-.91.45,0,.94.13,1.49.39.63.31.95.66.95,1.05,0,.13-.07.24-.22.32-.14.08-.28.12-.42.12-.09,0-.34-.12-.75-.36-.41-.24-.74-.36-1-.36-.57,0-1.05.21-1.44.61-.38.41-.57.89-.57,1.44,0,.7.17,1.25.5,1.67.34.46.77.72,1.27.79.66,0,1.08-.04,1.27-.11.19-.07.37-.22.54-.43.13-.12.26-.17.39-.16.13.01.22.07.28.17.08.14.13.28.13.42,0,.1-.05.24-.15.4Z"/>
      <path class="cls-2" d="m108.64,96.83c-.54.62-1.33.93-2.37.93s-1.85-.32-2.42-.95c-.55-.62-.82-1.46-.82-2.51s.26-1.84.78-2.47c.56-.65,1.34-.98,2.36-.98s1.86.32,2.44.96c.52.6.78,1.45.78,2.52s-.25,1.88-.74,2.48Zm-1.04-4.01c-.36-.46-.85-.68-1.45-.68s-1.05.22-1.39.67c-.32.4-.47.9-.47,1.51s.2,1.16.58,1.57c.41.41.92.61,1.53.61.54,0,.97-.23,1.28-.68.28-.4.42-.88.42-1.45,0-.61-.17-1.13-.5-1.55Z"/>
      <path class="cls-2" d="m114.02,88.05c.41,0,.62.13.62.4v6.75c0,.92.22,1.38.65,1.38h.66c.13,0,.24.05.34.16s.14.25.13.44c-.02.41-.21.62-.57.62h-.49c-.57,0-1.03-.18-1.37-.53-.38-.33-.56-.98-.56-1.95,0,.57,0-1.72,0-6.86,0-.27.2-.4.59-.4Z"/>
      <path class="cls-2" d="m125.37,96.83c-.54.62-1.33.93-2.37.93s-1.85-.32-2.42-.95c-.55-.62-.82-1.46-.82-2.51s.26-1.84.78-2.47c.56-.65,1.34-.98,2.36-.98s1.86.32,2.44.96c.52.6.78,1.45.78,2.52s-.25,1.88-.74,2.48Zm-1.04-4.01c-.36-.46-.85-.68-1.45-.68s-1.05.22-1.39.67c-.32.4-.47.9-.47,1.51s.2,1.16.58,1.57c.41.41.92.61,1.53.61.54,0,.97-.23,1.28-.68.28-.4.42-.88.42-1.45,0-.61-.17-1.13-.5-1.55Z"/>
      <path class="cls-2" d="m134.04,92.54c-.64-.23-1.12-.35-1.44-.35-.95,0-1.78.41-2.5,1.24v3.88c0,.29-.2.43-.59.43-.41,0-.62-.14-.62-.43v-5.71c0-.58.2-.86.62-.86.26,0,.44.12.54.35.02.06.03.16.04.27s.02.26.03.42c.73-.56,1.54-.84,2.41-.84.43,0,.8.07,1.13.21.45.19.67.46.67.82s-.1.53-.29.57Z"/>
      <path class="cls-2" d="m140.69,92.61c-.06.14-.14.27-.24.38s-.22.2-.36.26-.28.1-.43.1c-.32,0-.58-.11-.8-.34-.22-.23-.33-.51-.33-.84,0-.15.03-.3.09-.45s.14-.28.24-.39c.1-.11.22-.2.36-.27s.28-.1.44-.1.3.04.44.1.25.16.36.27c.1.11.18.24.24.38.06.14.09.29.09.45s-.03.31-.09.45Zm-.27,4.13c-.23.23-.49.35-.77.35-.14,0-.28-.03-.42-.09-.14-.06-.26-.14-.36-.25-.1-.11-.19-.23-.25-.36-.06-.13-.1-.27-.1-.41,0-.27.12-.53.36-.79.23-.26.49-.39.77-.39.16,0,.3.03.44.1.13.06.25.15.36.26s.18.24.24.38c.06.14.09.29.09.44,0,.27-.12.53-.36.77Z"/>
      <path class="cls-6" d="m159.11,91.63c-.07,0-.17,0-.3,0-.12,0-.21,0-.26,0l-.5,2.51c.07,0,.17,0,.32-.01.15,0,.26-.01.32-.01.59,0,.89.19.89.58,0,.36-.14.54-.42.54h-1.35l-.42,1.96c-.09.46-.3.68-.63.68s-.47-.19-.47-.56c0-.21.06-.56.2-1.03.06-.23.11-.44.15-.61.03-.18.04-.33.03-.45h-1.7c-.08.81-.24,1.5-.47,2.09-.09.29-.32.43-.67.43-.25,0-.38-.15-.38-.45,0-.26.05-.61.15-1.04.07-.32.13-.56.17-.73.04-.17.07-.27.08-.3-.06,0-.17,0-.3.01-.13,0-.24.01-.31.01-.39,0-.58-.19-.58-.56,0-.4.27-.6.81-.6.08,0,.2,0,.36.01.15,0,.25.01.3.01l.58-2.52c-.07,0-.17,0-.33.01-.15,0-.27.01-.34.01-.47,0-.71-.2-.71-.6,0-.33.34-.5,1.03-.5.09,0,.21,0,.35,0s.22,0,.24,0c.05-.24.09-.49.12-.74s.08-.5.12-.75c.17-.67.43-1,.79-1,.31,0,.46.19.46.57,0,.28-.04.6-.13.98-.05.16-.09.32-.12.48-.04.16-.07.32-.11.48h1.62c.05-.24.1-.49.15-.73s.11-.49.17-.73c.19-.7.46-1.04.79-1.04.26,0,.39.17.39.52,0,.27-.13.93-.4,1.99.06,0,.16,0,.29,0,.13,0,.22,0,.29,0,.48,0,.72.17.72.5,0,.39-.33.58-.99.58Zm-3.29-.01l-.57,2.52h1.7l.49-2.52h-1.62Z"/>
      <path class="cls-6" d="m163.4,92.04h2.1c.17,0,.31.05.42.18.11.13.17.28.17.46,0,.37-.2.56-.59.57h-2.1c.02,1.28.02,2.26.01,2.94,0,.68-.01,1.03-.01,1.05,0,.24-.06.4-.17.49-.12.08-.27.13-.47.13s-.33-.07-.42-.2c-.1-.13-.15-.28-.15-.44v-7.72c0-.81.39-1.21,1.17-1.21h3.26c.19,0,.34.06.47.18.13.12.19.27.19.45,0,.39-.22.59-.66.59h-3.22v2.55Z"/>
      <path class="cls-6" d="m171.76,92.04h2.1c.17,0,.31.05.42.18.11.13.17.28.17.46,0,.37-.2.56-.59.57h-2.1c.02,1.28.02,2.26.01,2.94,0,.68-.01,1.03-.01,1.05,0,.24-.06.4-.17.49-.12.08-.27.13-.47.13s-.33-.07-.42-.2c-.1-.13-.15-.28-.15-.44v-7.72c0-.81.39-1.21,1.17-1.21h3.26c.19,0,.34.06.47.18.13.12.19.27.19.45,0,.39-.22.59-.66.59h-3.22v2.55Z"/>
      <path class="cls-6" d="m180.13,92.04h2.1c.17,0,.31.05.42.18.11.13.17.28.17.46,0,.37-.2.56-.59.57h-2.1c.02,1.28.02,2.26.01,2.94,0,.68-.01,1.03-.01,1.05,0,.24-.06.4-.17.49-.12.08-.27.13-.47.13s-.33-.07-.42-.2c-.1-.13-.15-.28-.15-.44v-7.72c0-.81.39-1.21,1.17-1.21h3.26c.19,0,.34.06.47.18.13.12.19.27.19.45,0,.39-.22.59-.66.59h-3.22v2.55Z"/>
      <path class="cls-6" d="m188.49,92.04h2.1c.17,0,.31.05.42.18.11.13.17.28.17.46,0,.37-.2.56-.59.57h-2.1c.02,1.28.02,2.26.01,2.94,0,.68-.01,1.03-.01,1.05,0,.24-.06.4-.17.49-.12.08-.27.13-.47.13s-.33-.07-.42-.2c-.1-.13-.15-.28-.15-.44v-7.72c0-.81.39-1.21,1.17-1.21h3.26c.19,0,.34.06.47.18.13.12.19.27.19.45,0,.39-.22.59-.66.59h-3.22v2.55Z"/>
      <path class="cls-6" d="m196.85,92.04h2.1c.17,0,.31.05.42.18.11.13.17.28.17.46,0,.37-.2.56-.59.57h-2.1c.02,1.28.02,2.26.01,2.94,0,.68-.01,1.03-.01,1.05,0,.24-.06.4-.17.49-.12.08-.27.13-.47.13s-.33-.07-.42-.2c-.1-.13-.15-.28-.15-.44v-7.72c0-.81.39-1.21,1.17-1.21h3.26c.19,0,.34.06.47.18.13.12.19.27.19.45,0,.39-.22.59-.66.59h-3.22v2.55Z"/>
      <path class="cls-6" d="m205.21,92.04h2.1c.17,0,.31.05.42.18.11.13.17.28.17.46,0,.37-.2.56-.59.57h-2.1c.02,1.28.02,2.26.01,2.94,0,.68-.01,1.03-.01,1.05,0,.24-.06.4-.17.49-.12.08-.27.13-.47.13s-.33-.07-.42-.2c-.1-.13-.15-.28-.15-.44v-7.72c0-.81.39-1.21,1.17-1.21h3.26c.19,0,.34.06.47.18.13.12.19.27.19.45,0,.39-.22.59-.66.59h-3.22v2.55Z"/>
      <path class="cls-5" d="m215.9,92.65c-.06.14-.14.26-.25.37s-.23.19-.37.26c-.14.07-.28.1-.43.1-.16,0-.31-.03-.45-.1-.14-.06-.26-.15-.37-.26s-.19-.23-.26-.37c-.06-.14-.1-.29-.1-.45,0-.3.12-.58.36-.84.23-.26.5-.39.81-.39.16,0,.31.03.45.1.14.07.26.16.36.27s.18.24.24.39c.06.15.09.3.09.46s-.03.31-.09.45Zm.13,4.71c-.19.64-.43,1.06-.72,1.27-.28.2-.75.3-1.41.31-.13-.08-.2-.21-.2-.38,0-.15.05-.29.15-.42h.15c.71.01,1.11-.28,1.21-.86-.43-.13-.73-.25-.92-.36-.31-.2-.46-.48-.46-.82,0-.54.4-.81,1.21-.81.34,0,.62.14.82.43.18.26.26.57.26.92,0,.19-.04.43-.11.72Z"/>
    </g>
  </g>
  <g class="cls-10">
    <g>
      <path class="cls-5" d="m48.67,121.63c-.31.16-.61.31-.92.47s-.62.31-.93.47l3.04,1.73c.2.11.29.27.29.47,0,.16-.06.3-.17.42-.11.12-.24.18-.39.18-.18,0-.83-.32-1.95-.96-.43-.24-.81-.46-1.15-.67-.34-.2-.64-.39-.9-.56-.29-.18-.43-.39-.43-.66s.15-.47.46-.65c.19-.11.45-.27.8-.46.35-.2.77-.43,1.28-.71,1.17-.64,1.8-.96,1.88-.96.18,0,.33.1.46.29.09.15.14.33.14.54,0,.17-.5.52-1.5,1.06Z"/>
      <path class="cls-5" d="m58.96,125.81c0,.11-.01.24-.01.38v.47c0,.33-.19.5-.57.52-.22,0-.38-.03-.48-.12-.09-.09-.14-.24-.14-.45-.4.38-.88.57-1.45.57-.94,0-1.71-.33-2.32-.99-.58-.63-.87-1.41-.87-2.34s.29-1.66.86-2.34c.61-.7,1.36-1.05,2.23-1.05.48,0,.99.1,1.52.31v-2.84c0-.16.06-.29.19-.39.13-.1.27-.15.43-.15.39,0,.59.18.6.54v7.15s.01.74.01.74Zm-1.21-3.71c-.48-.29-.95-.43-1.39-.43-.55,0-1.03.21-1.45.65-.42.44-.63.93-.63,1.46,0,.67.21,1.21.63,1.61.44.42.99.61,1.67.58.32,0,.71-.24,1.17-.7v-3.16Z"/>
      <path class="cls-5" d="m65.25,126.87c0,.21-.2.32-.58.32-.41,0-.61-.12-.61-.35v-5.12h-1.31c-.33,0-.49-.17-.49-.52,0-.2.04-.37.13-.5.09-.13.21-.2.36-.2h1.71c.35,0,.58.05.67.15.09.1.14.24.14.42v5.81-.03Zm-.91-7.43c-.23,0-.43-.09-.61-.26-.17-.17-.26-.37-.26-.59s.08-.43.26-.6c.17-.17.37-.25.61-.25s.42.08.59.25.25.37.25.6c0,.57-.28.85-.84.85Z"/>
      <path class="cls-5" d="m74.46,123.81c-.33.9-.59,1.6-.81,2.09-.21.49-.37.83-.46,1.02-.09.2-.24.31-.45.31-.24,0-.42-.11-.54-.33-.12-.2-.53-1.23-1.23-3.08-.7-1.93-1.05-2.95-1.05-3.05,0-.31.27-.46.79-.46.31,0,.52.13.63.4l1.37,3.85,1.42-3.8c.09-.31.37-.46.82-.46.41,0,.61.14.61.43,0,.16-.37,1.19-1.11,3.09Z"/>
      <path class="cls-2" d="m92.06,126.34c-.08.13-.2.25-.36.37s-.37.22-.66.31c-.36.09-.72.14-1.07.14-1.09,0-1.92-.31-2.51-.92-.56-.61-.84-1.46-.84-2.55,0-1,.27-1.81.82-2.41.58-.6,1.36-.91,2.36-.91.45,0,.94.13,1.49.39.63.31.95.66.95,1.05,0,.13-.07.24-.22.32-.14.08-.28.12-.42.12-.09,0-.34-.12-.75-.36-.41-.24-.74-.36-1-.36-.57,0-1.05.21-1.44.61-.38.41-.57.89-.57,1.44,0,.7.17,1.25.5,1.67.34.46.77.72,1.27.79.66,0,1.08-.04,1.27-.11.19-.07.37-.22.54-.43.13-.12.26-.17.39-.16.13.01.22.07.28.17.08.14.13.28.13.42,0,.1-.05.24-.15.4Z"/>
      <path class="cls-2" d="m97.29,117.5c.41,0,.62.13.62.4v6.75c0,.92.22,1.38.65,1.38h.66c.13,0,.24.05.34.16s.14.25.13.44c-.02.41-.21.62-.57.62h-.49c-.57,0-1.03-.18-1.37-.53-.38-.33-.56-.98-.56-1.95,0,.57,0-1.72,0-6.86,0-.27.2-.4.59-.4Z"/>
      <path class="cls-2" d="m108.62,127.19c-.26,0-.55-.15-.88-.45-.72.27-1.34.4-1.85.4-.71,0-1.31-.16-1.83-.47-.59-.39-.89-.92-.89-1.59,0-.71.33-1.28,1-1.71.57-.37,1.23-.56,1.98-.56.42,0,.9.07,1.44.2v-.46c0-.33-.18-.58-.53-.77-.28-.14-.61-.21-.99-.21-.28,0-.66.08-1.14.25-.49.17-.85.25-1.07.25-.26,0-.39-.22-.39-.66,0-.32.37-.57,1.1-.77.54-.14,1.05-.21,1.52-.21.61,0,1.17.12,1.67.36.58.29.92.72,1,1.28,0-.02-.01.3-.01.96.03.1.04.35.04.74v.47c0,.18,0,.39-.01.63,0,.24-.01.44-.01.58v.26c0,.31.08.55.24.74.17.17.25.31.25.43,0,.19-.21.28-.63.28Zm-1.07-3.07c-.26-.07-.5-.11-.73-.14-.23-.03-.43-.04-.62-.04-.51,0-.93.09-1.25.26-.42.22-.63.56-.63,1.02,0,.26.18.47.53.63.29.1.58.15.89.15.57,0,1.17-.16,1.81-.47v-1.41Z"/>
      <path class="cls-2" d="m116.24,126.69c-.49.32-1.05.47-1.69.47-.47,0-.98-.08-1.5-.24-.68-.23-1.02-.54-1.02-.92,0-.15.06-.28.17-.4s.25-.17.4-.17c.07,0,.34.09.82.28.48.19.88.28,1.18.28s.58-.06.82-.18c.31-.15.46-.37.46-.66,0-.36-.23-.61-.68-.75-.24-.05-.48-.09-.72-.14-.24-.05-.48-.09-.72-.14-.61-.16-1.05-.4-1.3-.72-.26-.34-.39-.71-.39-1.1,0-.58.25-1.04.75-1.39.45-.33.97-.5,1.57-.5.46,0,.93.07,1.42.21.67.19,1,.44,1,.75,0,.13-.04.26-.11.38-.08.12-.19.18-.32.18-.2,0-.52-.07-.93-.21-.41-.14-.73-.21-.96-.21-.33,0-.61.05-.86.15-.32.15-.47.37-.47.67,0,.34.27.58.81.7.27.07.54.14.83.21.28.07.56.13.84.2.66.23,1.11.65,1.36,1.24.08.2.11.38.11.56,0,.6-.29,1.09-.86,1.46Z"/>
      <path class="cls-2" d="m124.61,126.69c-.49.32-1.05.47-1.69.47-.47,0-.98-.08-1.5-.24-.68-.23-1.02-.54-1.02-.92,0-.15.06-.28.17-.4s.25-.17.4-.17c.07,0,.34.09.82.28.48.19.88.28,1.18.28s.58-.06.82-.18c.31-.15.46-.37.46-.66,0-.36-.23-.61-.68-.75-.24-.05-.48-.09-.72-.14-.24-.05-.48-.09-.72-.14-.61-.16-1.05-.4-1.3-.72-.26-.34-.39-.71-.39-1.1,0-.58.25-1.04.75-1.39.45-.33.97-.5,1.57-.5.46,0,.93.07,1.42.21.67.19,1,.44,1,.75,0,.13-.04.26-.11.38-.08.12-.19.18-.32.18-.2,0-.52-.07-.93-.21-.41-.14-.73-.21-.96-.21-.33,0-.61.05-.86.15-.32.15-.47.37-.47.67,0,.34.27.58.81.7.27.07.54.14.83.21.28.07.56.13.84.2.66.23,1.11.65,1.36,1.24.08.2.11.38.11.56,0,.6-.29,1.09-.86,1.46Z"/>
      <path class="cls-2" d="m133.79,121.75c-.08.13-.2.2-.33.2h-4.4c-.24,0-.36-.2-.36-.58,0-.14.04-.27.11-.4.08-.15.2-.22.33-.22h4.29c.32,0,.47.21.47.63,0,.13-.04.26-.11.39Zm-.36,2.58h-4.29c-.14,0-.25-.07-.33-.2-.07-.13-.11-.26-.11-.4,0-.15.04-.29.13-.42.09-.13.2-.2.34-.2h4.29c.14,0,.25.07.33.21.07.13.11.26.11.4,0,.4-.16.6-.47.6Z"/>
      <path class="cls-7" d="m138.11,121.37v-.72l.52-.18c.49-.18.73-.43.73-.77,0-.16-.17-.27-.52-.33-.49-.08-.74-.38-.74-.89,0-.27.11-.49.33-.66s.47-.26.75-.26c.49,0,.83.22,1.02.67.13.33.13.72,0,1.18-.26.96-.96,1.61-2.09,1.96Z"/>
      <path class="cls-7" d="m146.81,117.7c.12-.08.25-.12.38-.12h.03c.41.02.61.2.61.56v2.38h1.67c.29.02.43.18.43.49-.03.23-.08.42-.15.55-.08.11-.19.17-.32.17h-1.62v2.97c0,.52.05.87.15,1.06.14.25.42.38.85.38.33,0,.55-.05.66-.11l.4-.33c.07-.04.13-.06.21-.06.06,0,.12.01.17.04.07.05.14.12.2.24.06.11.09.24.09.38v.11c-.04.15-.13.27-.27.36-.28.19-.52.31-.74.37s-.46.09-.75.09c-.85,0-1.43-.22-1.73-.63-.31-.43-.46-1.05-.46-1.88v-2.99h-.88c-.1,0-.17-.06-.21-.17-.06-.13-.1-.3-.1-.49,0-.11.03-.23.08-.34.04-.14.13-.21.26-.21h.82v-2.45c0-.16.06-.28.19-.36Z"/>
      <path class="cls-7" d="m158.82,126.28c-.54.62-1.33.93-2.37.93s-1.85-.32-2.42-.95c-.55-.62-.82-1.46-.82-2.51s.26-1.84.78-2.47c.56-.65,1.34-.98,2.36-.98s1.86.32,2.44.96c.52.6.78,1.45.78,2.52s-.25,1.88-.74,2.48Zm-1.04-4.01c-.36-.46-.85-.68-1.45-.68s-1.05.22-1.39.67c-.32.4-.47.9-.47,1.51s.2,1.16.58,1.57c.41.41.92.61,1.53.61.54,0,.97-.23,1.28-.68.28-.4.42-.88.42-1.45,0-.61-.17-1.13-.5-1.55Z"/>
      <path class="cls-7" d="m167.49,121.99c-.64-.23-1.12-.35-1.44-.35-.95,0-1.78.41-2.5,1.24v3.88c0,.29-.2.43-.59.43-.41,0-.62-.14-.62-.43v-5.71c0-.58.2-.86.62-.86.26,0,.44.12.54.35.02.06.03.16.04.27s.02.26.03.42c.73-.56,1.54-.84,2.41-.84.43,0,.8.07,1.13.21.45.19.67.46.67.82s-.1.53-.29.57Z"/>
      <path class="cls-7" d="m174.72,126.73v-3.97c0-.44-.08-.75-.25-.93-.18-.2-.48-.31-.91-.31-.47,0-.94.19-1.39.56-.47.38-.71.8-.71,1.27v3.33c0,.35-.19.53-.58.53-.15,0-.29-.05-.42-.16-.13-.11-.2-.24-.2-.38v-5.73c0-.16.08-.3.25-.43.15-.11.31-.17.47-.17.2,0,.35.1.44.31.03.09.05.19.08.28.03.09.06.19.1.28h0c.12-.18.41-.36.87-.56.45-.19.79-.28,1-.28.88,0,1.52.22,1.93.67.36.41.54,1.07.54,1.98v3.72c0,.3-.2.45-.6.45s-.61-.15-.61-.45Z"/>
      <path class="cls-7" d="m183.88,127.19c-.26,0-.55-.15-.88-.45-.72.27-1.34.4-1.85.4-.71,0-1.31-.16-1.83-.47-.59-.39-.89-.92-.89-1.59,0-.71.33-1.28,1-1.71.57-.37,1.23-.56,1.98-.56.42,0,.9.07,1.44.2v-.46c0-.33-.18-.58-.53-.77-.28-.14-.61-.21-.99-.21-.28,0-.66.08-1.14.25-.49.17-.85.25-1.07.25-.26,0-.39-.22-.39-.66,0-.32.37-.57,1.1-.77.54-.14,1.05-.21,1.52-.21.61,0,1.17.12,1.67.36.58.29.92.72,1,1.28,0-.02-.01.3-.01.96.03.1.04.35.04.74v.47c0,.18,0,.39-.01.63,0,.24-.01.44-.01.58v.26c0,.31.08.55.24.74.17.17.25.31.25.43,0,.19-.21.28-.63.28Zm-1.07-3.07c-.26-.07-.5-.11-.73-.14-.23-.03-.43-.04-.62-.04-.51,0-.93.09-1.25.26-.42.22-.63.56-.63,1.02,0,.26.18.47.53.63.29.1.58.15.89.15.57,0,1.17-.16,1.81-.47v-1.41Z"/>
      <path class="cls-7" d="m192.76,125.81c0,.11-.01.24-.01.38v.47c0,.33-.19.5-.57.52-.22,0-.38-.03-.48-.12-.09-.09-.14-.24-.14-.45-.4.38-.88.57-1.45.57-.94,0-1.71-.33-2.32-.99-.58-.63-.87-1.41-.87-2.34s.29-1.66.86-2.34c.61-.7,1.36-1.05,2.23-1.05.48,0,.99.1,1.52.31v-2.84c0-.16.06-.29.19-.39.13-.1.27-.15.43-.15.39,0,.59.18.6.54v7.15s.01.74.01.74Zm-1.21-3.71c-.48-.29-.95-.43-1.39-.43-.55,0-1.03.21-1.45.65-.42.44-.63.93-.63,1.46,0,.67.21,1.21.63,1.61.44.42.99.61,1.67.58.32,0,.71-.24,1.17-.7v-3.16Z"/>
      <path class="cls-7" d="m200.63,126.28c-.54.62-1.33.93-2.37.93s-1.85-.32-2.42-.95c-.55-.62-.82-1.46-.82-2.51s.26-1.84.78-2.47c.56-.65,1.34-.98,2.36-.98s1.86.32,2.44.96c.52.6.78,1.45.78,2.52s-.25,1.88-.74,2.48Zm-1.04-4.01c-.36-.46-.85-.68-1.45-.68s-1.05.22-1.39.67c-.32.4-.47.9-.47,1.51s.2,1.16.58,1.57c.41.41.92.61,1.53.61.54,0,.97-.23,1.28-.68.28-.4.42-.88.42-1.45,0-.61-.17-1.13-.5-1.55Z"/>
      <path class="cls-7" d="m208.83,123.17h-3.79c-.07,0-.17,0-.31.01-.14,0-.25.01-.31.01-.46,0-.68-.2-.68-.61,0-.14.04-.27.11-.4.08-.15.19-.22.33-.22h4.64c.16,0,.29.06.4.19.11.13.17.27.17.42,0,.36-.19.56-.56.6Z"/>
      <path class="cls-7" d="m217.23,119.31c-.08.06-.17.07-.28.04-.12-.02-.24-.05-.35-.1-.11-.05-.22-.1-.33-.17-.27-.16-.53-.24-.78-.24-.21,0-.35.06-.45.18-.19.17-.29.5-.31.99v.27c0,.11,0,.24-.01.4h1.53c.17,0,.3.11.4.32.02.05.03.1.04.15,0,.05.02.1.03.16,0,.15-.02.29-.08.43-.07.1-.19.15-.35.15h-1.57v4.59s.02,0,0,.03c0,.25-.05.43-.17.53-.12.1-.27.15-.43.15-.41,0-.61-.25-.61-.71v-4.59h-.66c-.15,0-.26-.05-.33-.15-.08-.14-.13-.28-.13-.43s.04-.29.13-.42c.06-.14.18-.21.33-.21h.66c0-.3.02-.53.02-.68,0-.16,0-.25,0-.28,0-.39.04-.72.13-1,.08-.28.24-.53.48-.75.23-.21.55-.33.98-.33.57-.02,1.04.06,1.44.23.57.25.85.53.86.84.02.24-.05.44-.19.6Z"/>
      <path class="cls-7" d="m222.73,117.5c.41,0,.62.13.62.4v6.75c0,.92.22,1.38.65,1.38h.66c.13,0,.24.05.34.16s.14.25.13.44c-.02.41-.21.62-.57.62h-.49c-.57,0-1.03-.18-1.37-.53-.38-.33-.56-.98-.56-1.95,0,.57,0-1.72,0-6.86,0-.27.2-.4.59-.4Z"/>
      <path class="cls-7" d="m234.05,127.19c-.26,0-.55-.15-.88-.45-.72.27-1.34.4-1.85.4-.71,0-1.31-.16-1.83-.47-.59-.39-.89-.92-.89-1.59,0-.71.33-1.28,1-1.71.57-.37,1.23-.56,1.98-.56.42,0,.9.07,1.44.2v-.46c0-.33-.18-.58-.53-.77-.28-.14-.61-.21-.99-.21-.28,0-.66.08-1.14.25-.49.17-.85.25-1.07.25-.26,0-.39-.22-.39-.66,0-.32.37-.57,1.1-.77.54-.14,1.05-.21,1.52-.21.61,0,1.17.12,1.67.36.58.29.92.72,1,1.28,0-.02-.01.3-.01.96.03.1.04.35.04.74v.47c0,.18,0,.39-.01.63,0,.24-.01.44-.01.58v.26c0,.31.08.55.24.74.17.17.25.31.25.43,0,.19-.21.28-.63.28Zm-1.07-3.07c-.26-.07-.5-.11-.73-.14-.23-.03-.43-.04-.62-.04-.51,0-.93.09-1.25.26-.42.22-.63.56-.63,1.02,0,.26.18.47.53.63.29.1.58.15.89.15.57,0,1.17-.16,1.81-.47v-1.41Z"/>
      <path class="cls-7" d="m241.68,126.69c-.49.32-1.05.47-1.69.47-.47,0-.98-.08-1.5-.24-.68-.23-1.02-.54-1.02-.92,0-.15.06-.28.17-.4s.25-.17.4-.17c.07,0,.34.09.82.28.48.19.88.28,1.18.28s.58-.06.82-.18c.31-.15.46-.37.46-.66,0-.36-.23-.61-.68-.75-.24-.05-.48-.09-.72-.14-.24-.05-.48-.09-.72-.14-.61-.16-1.05-.4-1.3-.72-.26-.34-.39-.71-.39-1.1,0-.58.25-1.04.75-1.39.45-.33.97-.5,1.57-.5.46,0,.93.07,1.42.21.67.19,1,.44,1,.75,0,.13-.04.26-.11.38-.08.12-.19.18-.32.18-.2,0-.52-.07-.93-.21-.41-.14-.73-.21-.96-.21-.33,0-.61.05-.86.15-.32.15-.47.37-.47.67,0,.34.27.58.81.7.27.07.54.14.83.21.28.07.56.13.84.2.66.23,1.11.65,1.36,1.24.08.2.11.38.11.56,0,.6-.29,1.09-.86,1.46Z"/>
      <path class="cls-7" d="m251.21,126.63c0,.21-.05.35-.14.41-.09.06-.24.09-.43.09-.13,0-.27-.05-.42-.15-.15-.1-.22-.21-.22-.35v-4.3c0-.55-.28-.82-.85-.82-.61,0-1.09.1-1.44.29-.17.09-.33.21-.47.34-.15.13-.32.33-.5.59v4.01c0,.21-.07.34-.21.39-.14.05-.29.07-.45.07-.13,0-.26-.04-.38-.13-.12-.08-.18-.2-.18-.33v-8.96c0-.17.06-.3.18-.39.12-.09.26-.14.43-.14.18,0,.32.04.43.11.11.07.17.19.17.35v3.41c.36-.25.72-.45,1.07-.6.35-.15.75-.22,1.2-.22.71,0,1.25.18,1.63.54s.57.91.57,1.64v4.14Z"/>
      <path class="cls-7" d="m255.18,121.37v-.72l.52-.18c.49-.18.73-.43.73-.77,0-.16-.17-.27-.52-.33-.49-.08-.74-.38-.74-.89,0-.27.11-.49.33-.66s.47-.26.75-.26c.49,0,.83.22,1.02.67.13.33.13.72,0,1.18-.26.96-.96,1.61-2.09,1.96Z"/>
      <path class="cls-5" d="m265.63,124.13c-1.43.85-2.28,1.28-2.55,1.28-.15,0-.28-.05-.4-.16s-.17-.23-.17-.37c0-.24.11-.43.33-.56l3.05-1.73-3.09-1.67c-.26-.15-.39-.34-.39-.57,0-.17.06-.31.19-.44.12-.13.27-.19.42-.19.09,0,.2.02.31.07l3.75,2.09c.46.26.68.49.68.7,0,.17-.71.68-2.13,1.55Z"/>
      <path class="cls-5" d="m82.12,136.76c-.31.16-.61.31-.92.47s-.62.31-.93.47l3.04,1.73c.2.11.29.27.29.47,0,.16-.06.3-.17.42-.11.12-.24.18-.39.18-.18,0-.83-.32-1.95-.96-.43-.24-.81-.46-1.15-.67-.34-.2-.64-.39-.9-.56-.29-.18-.43-.39-.43-.66s.15-.47.46-.65c.19-.11.45-.27.8-.46.35-.2.77-.43,1.28-.71,1.17-.64,1.8-.96,1.88-.96.18,0,.33.1.46.29.09.15.14.33.14.54,0,.17-.5.52-1.5,1.06Z"/>
      <path class="cls-5" d="m91.16,141.82c-.49.32-1.05.47-1.69.47-.47,0-.98-.08-1.5-.24-.68-.23-1.02-.54-1.02-.92,0-.15.06-.28.17-.4s.25-.17.4-.17c.07,0,.34.09.82.28.48.19.88.28,1.18.28s.58-.06.82-.18c.31-.15.46-.37.46-.66,0-.36-.23-.61-.68-.75-.24-.05-.48-.09-.72-.14-.24-.05-.48-.09-.72-.14-.61-.16-1.05-.4-1.3-.72-.26-.34-.39-.71-.39-1.1,0-.58.25-1.04.75-1.39.45-.33.97-.5,1.57-.5.46,0,.93.07,1.42.21.67.19,1,.44,1,.75,0,.13-.04.26-.11.38-.08.12-.19.18-.32.18-.2,0-.52-.07-.93-.21-.41-.14-.73-.21-.96-.21-.33,0-.61.05-.86.15-.32.15-.47.37-.47.67,0,.34.27.58.81.7.27.07.54.14.83.21.28.07.56.13.84.2.66.23,1.11.65,1.36,1.24.08.2.11.38.11.56,0,.6-.29,1.09-.86,1.46Z"/>
      <path class="cls-5" d="m97.04,135.71c.23-.11.47-.18.72-.21.76-.08,1.37-.03,1.83.15.79.32,1.23.96,1.33,1.94.05.35.07.78.08,1.28.03.56-.05,1.09-.24,1.61s-.49.95-.9,1.29c-.49.39-1.05.58-1.68.58-.55,0-1.19-.19-1.92-.56v3.19c.01.32-.18.47-.58.47-.15,0-.29-.04-.41-.13-.14-.06-.21-.17-.21-.32v-9.27c0-.32.2-.46.61-.43.41.04.62.19.61.45v.47c.27-.24.52-.42.75-.53Zm0,1.44c-.15.1-.29.2-.41.31-.12.1-.24.2-.34.31v2.69c.67.37,1.21.58,1.64.61.88.1,1.46-.21,1.75-.93.13-.33.2-.72.21-1.18.02-.87-.1-1.47-.35-1.78-.15-.2-.36-.34-.64-.42-.28-.07-.64-.05-1.08.04-.26.06-.52.18-.78.36Z"/>
      <path class="cls-5" d="m108.62,142.32c-.26,0-.55-.15-.88-.45-.72.27-1.34.4-1.85.4-.71,0-1.31-.16-1.83-.47-.59-.39-.89-.92-.89-1.59,0-.71.33-1.28,1-1.71.57-.37,1.23-.56,1.98-.56.42,0,.9.07,1.44.2v-.46c0-.33-.18-.58-.53-.77-.28-.14-.61-.21-.99-.21-.28,0-.66.08-1.14.25-.49.17-.85.25-1.07.25-.26,0-.39-.22-.39-.66,0-.32.37-.57,1.1-.77.54-.14,1.05-.21,1.52-.21.61,0,1.17.12,1.67.36.58.29.92.72,1,1.28,0-.02-.01.3-.01.96.03.1.04.35.04.74v.47c0,.18,0,.39-.01.63,0,.24-.01.44-.01.58v.26c0,.31.08.55.24.74.17.17.25.31.25.43,0,.19-.21.28-.63.28Zm-1.07-3.07c-.26-.07-.5-.11-.73-.14-.23-.03-.43-.04-.62-.04-.51,0-.93.09-1.25.26-.42.22-.63.56-.63,1.02,0,.26.18.47.53.63.29.1.58.15.89.15.57,0,1.17-.16,1.81-.47v-1.41Z"/>
      <path class="cls-5" d="m116.19,141.86v-3.97c0-.44-.08-.75-.25-.93-.18-.2-.48-.31-.91-.31-.47,0-.94.19-1.39.56-.47.38-.71.8-.71,1.27v3.33c0,.35-.19.53-.58.53-.15,0-.29-.05-.42-.16-.13-.11-.2-.24-.2-.38v-5.73c0-.16.08-.3.25-.43.15-.11.31-.17.47-.17.2,0,.35.1.44.31.03.09.05.19.08.28.03.09.06.19.1.28h0c.12-.18.41-.36.87-.56.45-.19.79-.28,1-.28.88,0,1.52.22,1.93.67.36.41.54,1.07.54,1.98v3.72c0,.3-.2.45-.6.45s-.61-.15-.61-.45Z"/>
      <path class="cls-2" d="m133.87,141.47c-.08.13-.2.25-.36.37s-.37.22-.66.31c-.36.09-.72.14-1.07.14-1.09,0-1.92-.31-2.51-.92-.56-.61-.84-1.46-.84-2.55,0-1,.27-1.81.82-2.41.58-.6,1.36-.91,2.36-.91.45,0,.94.13,1.49.39.63.31.95.66.95,1.05,0,.13-.07.24-.22.32-.14.08-.28.12-.42.12-.09,0-.34-.12-.75-.36-.41-.24-.74-.36-1-.36-.57,0-1.05.21-1.44.61-.38.41-.57.89-.57,1.44,0,.7.17,1.25.5,1.67.34.46.77.72,1.27.79.66,0,1.08-.04,1.27-.11.19-.07.37-.22.54-.43.13-.12.26-.17.39-.16.13.01.22.07.28.17.08.14.13.28.13.42,0,.1-.05.24-.15.4Z"/>
      <path class="cls-2" d="m139.11,132.63c.41,0,.62.13.62.4v6.75c0,.92.22,1.38.65,1.38h.66c.13,0,.24.05.34.16s.14.25.13.44c-.02.41-.21.62-.57.62h-.49c-.57,0-1.03-.18-1.37-.53-.38-.33-.56-.98-.56-1.95,0,.57,0-1.72,0-6.86,0-.27.2-.4.59-.4Z"/>
      <path class="cls-2" d="m150.43,142.32c-.26,0-.55-.15-.88-.45-.72.27-1.34.4-1.85.4-.71,0-1.31-.16-1.83-.47-.59-.39-.89-.92-.89-1.59,0-.71.33-1.28,1-1.71.57-.37,1.23-.56,1.98-.56.42,0,.9.07,1.44.2v-.46c0-.33-.18-.58-.53-.77-.28-.14-.61-.21-.99-.21-.28,0-.66.08-1.14.25-.49.17-.85.25-1.07.25-.26,0-.39-.22-.39-.66,0-.32.37-.57,1.1-.77.54-.14,1.05-.21,1.52-.21.61,0,1.17.12,1.67.36.58.29.92.72,1,1.28,0-.02-.01.3-.01.96.03.1.04.35.04.74v.47c0,.18,0,.39-.01.63,0,.24-.01.44-.01.58v.26c0,.31.08.55.24.74.17.17.25.31.25.43,0,.19-.21.28-.63.28Zm-1.07-3.07c-.26-.07-.5-.11-.73-.14-.23-.03-.43-.04-.62-.04-.51,0-.93.09-1.25.26-.42.22-.63.56-.63,1.02,0,.26.18.47.53.63.29.1.58.15.89.15.57,0,1.17-.16,1.81-.47v-1.41Z"/>
      <path class="cls-2" d="m158.06,141.82c-.49.32-1.05.47-1.69.47-.47,0-.98-.08-1.5-.24-.68-.23-1.02-.54-1.02-.92,0-.15.06-.28.17-.4s.25-.17.4-.17c.07,0,.34.09.82.28.48.19.88.28,1.18.28s.58-.06.82-.18c.31-.15.46-.37.46-.66,0-.36-.23-.61-.68-.75-.24-.05-.48-.09-.72-.14-.24-.05-.48-.09-.72-.14-.61-.16-1.05-.4-1.3-.72-.26-.34-.39-.71-.39-1.1,0-.58.25-1.04.75-1.39.45-.33.97-.5,1.57-.5.46,0,.93.07,1.42.21.67.19,1,.44,1,.75,0,.13-.04.26-.11.38-.08.12-.19.18-.32.18-.2,0-.52-.07-.93-.21-.41-.14-.73-.21-.96-.21-.33,0-.61.05-.86.15-.32.15-.47.37-.47.67,0,.34.27.58.81.7.27.07.54.14.83.21.28.07.56.13.84.2.66.23,1.11.65,1.36,1.24.08.2.11.38.11.56,0,.6-.29,1.09-.86,1.46Z"/>
      <path class="cls-2" d="m166.42,141.82c-.49.32-1.05.47-1.69.47-.47,0-.98-.08-1.5-.24-.68-.23-1.02-.54-1.02-.92,0-.15.06-.28.17-.4s.25-.17.4-.17c.07,0,.34.09.82.28.48.19.88.28,1.18.28s.58-.06.82-.18c.31-.15.46-.37.46-.66,0-.36-.23-.61-.68-.75-.24-.05-.48-.09-.72-.14-.24-.05-.48-.09-.72-.14-.61-.16-1.05-.4-1.3-.72-.26-.34-.39-.71-.39-1.1,0-.58.25-1.04.75-1.39.45-.33.97-.5,1.57-.5.46,0,.93.07,1.42.21.67.19,1,.44,1,.75,0,.13-.04.26-.11.38-.08.12-.19.18-.32.18-.2,0-.52-.07-.93-.21-.41-.14-.73-.21-.96-.21-.33,0-.61.05-.86.15-.32.15-.47.37-.47.67,0,.34.27.58.81.7.27.07.54.14.83.21.28.07.56.13.84.2.66.23,1.11.65,1.36,1.24.08.2.11.38.11.56,0,.6-.29,1.09-.86,1.46Z"/>
      <path class="cls-2" d="m175.6,136.88c-.08.13-.2.2-.33.2h-4.4c-.24,0-.36-.2-.36-.58,0-.14.04-.27.11-.4.08-.15.2-.22.33-.22h4.29c.32,0,.47.21.47.63,0,.13-.04.26-.11.39Zm-.36,2.58h-4.29c-.14,0-.25-.07-.33-.2-.07-.13-.11-.26-.11-.4,0-.15.04-.29.13-.42.09-.13.2-.2.34-.2h4.29c.14,0,.25.07.33.21.07.13.11.26.11.4,0,.4-.16.6-.47.6Z"/>
      <path class="cls-7" d="m179.92,136.51v-.72l.52-.18c.49-.18.73-.43.73-.77,0-.16-.17-.27-.52-.33-.49-.08-.74-.38-.74-.89,0-.27.11-.49.33-.66s.47-.26.75-.26c.49,0,.83.22,1.02.67.13.33.13.72,0,1.18-.26.96-.96,1.61-2.09,1.96Z"/>
      <path class="cls-7" d="m188.62,132.83c.12-.08.25-.12.38-.12h.03c.41.02.61.2.61.56v2.38h1.67c.29.02.43.18.43.49-.03.23-.08.42-.15.55-.08.11-.19.17-.32.17h-1.62v2.97c0,.52.05.87.15,1.06.14.25.42.38.85.38.33,0,.55-.05.66-.11l.4-.33c.07-.04.13-.06.21-.06.06,0,.12.01.17.04.07.05.14.12.2.24.06.11.09.24.09.38v.11c-.04.15-.13.27-.27.36-.28.19-.52.31-.74.37s-.46.09-.75.09c-.85,0-1.43-.22-1.73-.63-.31-.43-.46-1.05-.46-1.88v-2.99h-.88c-.1,0-.17-.06-.21-.17-.06-.13-.1-.3-.1-.49,0-.11.03-.23.08-.34.04-.14.13-.21.26-.21h.82v-2.45c0-.16.06-.28.19-.36Z"/>
      <path class="cls-7" d="m200.04,139.48h-3.62c.04,1.06.66,1.59,1.87,1.59.38,0,.72-.02,1.02-.07.3-.05.71-.19,1.23-.43.2-.03.35.07.44.3s-.01.49-.32.79c-.55.42-1.37.63-2.48.63-1.05,0-1.83-.35-2.36-1.05-.47-.62-.71-1.42-.71-2.4,0-1.03.27-1.85.8-2.45.55-.63,1.28-.95,2.16-.95,1.94,0,2.91,1.08,2.91,3.23,0,.54-.32.81-.96.81Zm-2.11-2.88c-.34,0-.68.16-1,.48-.32.32-.49.72-.51,1.19h3.36c-.06-1.11-.67-1.67-1.85-1.67Z"/>
      <path class="cls-7" d="m208.84,142.28c-.39,0-.67-.13-.85-.39l-1.44-2.01-1.48,2.1c-.18.2-.41.31-.71.31-.5.02-.7-.17-.59-.56l2.05-2.85-2.22-2.85c.15-.5.53-.63,1.16-.39l1.78,2.23,1.45-2.16c.1-.17.26-.25.49-.25s.41.05.54.14c.13.09.2.2.2.31,0,.14-.66,1.12-1.97,2.94l1.76,2.36c.34.42.28.78-.18,1.07Z"/>
      <path class="cls-7" d="m213.71,132.83c.12-.08.25-.12.38-.12h.03c.41.02.61.2.61.56v2.38h1.67c.29.02.43.18.43.49-.03.23-.08.42-.15.55-.08.11-.19.17-.32.17h-1.62v2.97c0,.52.05.87.15,1.06.14.25.42.38.85.38.33,0,.55-.05.66-.11l.4-.33c.07-.04.13-.06.21-.06.06,0,.12.01.17.04.07.05.14.12.2.24.06.11.09.24.09.38v.11c-.04.15-.13.27-.27.36-.28.19-.52.31-.74.37s-.46.09-.75.09c-.85,0-1.43-.22-1.73-.63-.31-.43-.46-1.05-.46-1.88v-2.99h-.88c-.1,0-.17-.06-.21-.17-.06-.13-.1-.3-.1-.49,0-.11.03-.23.08-.34.04-.14.13-.21.26-.21h.82v-2.45c0-.16.06-.28.19-.36Z"/>
      <path class="cls-7" d="m221.73,136.51v-.72l.52-.18c.49-.18.73-.43.73-.77,0-.16-.17-.27-.52-.33-.49-.08-.74-.38-.74-.89,0-.27.11-.49.33-.66s.47-.26.75-.26c.49,0,.83.22,1.02.67.13.33.13.72,0,1.18-.26.96-.96,1.61-2.09,1.96Z"/>
      <path class="cls-5" d="m232.18,139.27c-1.43.85-2.28,1.28-2.55,1.28-.15,0-.28-.05-.4-.16s-.17-.23-.17-.37c0-.24.11-.43.33-.56l3.05-1.73-3.09-1.67c-.26-.15-.39-.34-.39-.57,0-.17.06-.31.19-.44.12-.13.27-.19.42-.19.09,0,.2.02.31.07l3.75,2.09c.46.26.68.49.68.7,0,.17-.71.68-2.13,1.55Z"/>
      <path class="cls-6" d="m242.72,134.07h-2.11l.03,7.9c0,.12-.06.2-.18.24-.12.04-.28.06-.49.06s-.36-.02-.44-.06c-.08-.04-.13-.12-.13-.24v-7.9h-2.19c-.33,0-.49-.2-.49-.59,0-.14.05-.28.14-.42s.21-.21.35-.21h5.51c.17,0,.3.06.41.19.11.12.16.27.16.44,0,.39-.19.59-.57.59Z"/>
      <path class="cls-6" d="m250.21,139.48h-3.62c.04,1.06.66,1.59,1.87,1.59.38,0,.72-.02,1.02-.07.3-.05.71-.19,1.23-.43.2-.03.35.07.44.3s-.01.49-.32.79c-.55.42-1.37.63-2.48.63-1.05,0-1.83-.35-2.36-1.05-.47-.62-.71-1.42-.71-2.4,0-1.03.27-1.85.8-2.45.55-.63,1.28-.95,2.16-.95,1.94,0,2.91,1.08,2.91,3.23,0,.54-.32.81-.96.81Zm-2.11-2.88c-.34,0-.68.16-1,.48-.32.32-.49.72-.51,1.19h3.36c-.06-1.11-.67-1.67-1.85-1.67Z"/>
      <path class="cls-6" d="m259.01,142.28c-.39,0-.67-.13-.85-.39l-1.44-2.01-1.48,2.1c-.18.2-.41.31-.71.31-.5.02-.7-.17-.59-.56l2.05-2.85-2.22-2.85c.15-.5.53-.63,1.16-.39l1.78,2.23,1.45-2.16c.1-.17.26-.25.49-.25s.41.05.54.14c.13.09.2.2.2.31,0,.14-.66,1.12-1.97,2.94l1.76,2.36c.34.42.28.78-.18,1.07Z"/>
      <path class="cls-6" d="m263.88,132.83c.12-.08.25-.12.38-.12h.03c.41.02.61.2.61.56v2.38h1.67c.29.02.43.18.43.49-.03.23-.08.42-.15.55-.08.11-.19.17-.32.17h-1.62v2.97c0,.52.05.87.15,1.06.14.25.42.38.85.38.33,0,.55-.05.66-.11l.4-.33c.07-.04.13-.06.21-.06.06,0,.12.01.17.04.07.05.14.12.2.24.06.11.09.24.09.38v.11c-.04.15-.13.27-.27.36-.28.19-.52.31-.74.37s-.46.09-.75.09c-.85,0-1.43-.22-1.73-.63-.31-.43-.46-1.05-.46-1.88v-2.99h-.88c-.1,0-.17-.06-.21-.17-.06-.13-.1-.3-.1-.49,0-.11.03-.23.08-.34.04-.14.13-.21.26-.21h.82v-2.45c0-.16.06-.28.19-.36Z"/>
      <path class="cls-5" d="m274.45,136.76c-.31.16-.61.31-.92.47s-.62.31-.93.47l3.04,1.73c.2.11.29.27.29.47,0,.16-.06.3-.17.42-.11.12-.24.18-.39.18-.18,0-.83-.32-1.95-.96-.43-.24-.81-.46-1.15-.67-.34-.2-.64-.39-.9-.56-.29-.18-.43-.39-.43-.66s.15-.47.46-.65c.19-.11.45-.27.8-.46.35-.2.77-.43,1.28-.71,1.17-.64,1.8-.96,1.88-.96.18,0,.33.1.46.29.09.15.14.33.14.54,0,.17-.5.52-1.5,1.06Z"/>
      <path class="cls-5" d="m282.65,137.58c-1.51,3.17-2.31,4.92-2.41,5.27-.09.15-.27.22-.53.22-.51,0-.77-.15-.77-.45,0-.1.72-1.76,2.16-4.96,1.46-3.21,2.28-4.96,2.47-5.23.14-.2.38-.29.71-.29.14,0,.27.05.38.14s.17.21.17.35c0,.15-.73,1.8-2.19,4.95Z"/>
      <path class="cls-5" d="m291.85,141.82c-.49.32-1.05.47-1.69.47-.47,0-.98-.08-1.5-.24-.68-.23-1.02-.54-1.02-.92,0-.15.06-.28.17-.4s.25-.17.4-.17c.07,0,.34.09.82.28.48.19.88.28,1.18.28s.58-.06.82-.18c.31-.15.46-.37.46-.66,0-.36-.23-.61-.68-.75-.24-.05-.48-.09-.72-.14-.24-.05-.48-.09-.72-.14-.61-.16-1.05-.4-1.3-.72-.26-.34-.39-.71-.39-1.1,0-.58.25-1.04.75-1.39.45-.33.97-.5,1.57-.5.46,0,.93.07,1.42.21.67.19,1,.44,1,.75,0,.13-.04.26-.11.38-.08.12-.19.18-.32.18-.2,0-.52-.07-.93-.21-.41-.14-.73-.21-.96-.21-.33,0-.61.05-.86.15-.32.15-.47.37-.47.67,0,.34.27.58.81.7.27.07.54.14.83.21.28.07.56.13.84.2.66.23,1.11.65,1.36,1.24.08.2.11.38.11.56,0,.6-.29,1.09-.86,1.46Z"/>
      <path class="cls-5" d="m297.73,135.71c.23-.11.47-.18.72-.21.76-.08,1.37-.03,1.83.15.79.32,1.23.96,1.33,1.94.05.35.07.78.08,1.28.03.56-.05,1.09-.24,1.61s-.49.95-.9,1.29c-.49.39-1.05.58-1.68.58-.55,0-1.19-.19-1.92-.56v3.19c.01.32-.18.47-.58.47-.15,0-.29-.04-.41-.13-.14-.06-.21-.17-.21-.32v-9.27c0-.32.2-.46.61-.43.41.04.62.19.61.45v.47c.27-.24.52-.42.75-.53Zm0,1.44c-.15.1-.29.2-.41.31-.12.1-.24.2-.34.31v2.69c.67.37,1.21.58,1.64.61.88.1,1.46-.21,1.75-.93.13-.33.2-.72.21-1.18.02-.87-.1-1.47-.35-1.78-.15-.2-.36-.34-.64-.42-.28-.07-.64-.05-1.08.04-.26.06-.52.18-.78.36Z"/>
      <path class="cls-5" d="m309.31,142.32c-.26,0-.55-.15-.88-.45-.72.27-1.34.4-1.85.4-.71,0-1.31-.16-1.83-.47-.59-.39-.89-.92-.89-1.59,0-.71.33-1.28,1-1.71.57-.37,1.23-.56,1.98-.56.42,0,.9.07,1.44.2v-.46c0-.33-.18-.58-.53-.77-.28-.14-.61-.21-.99-.21-.28,0-.66.08-1.14.25-.49.17-.85.25-1.07.25-.26,0-.39-.22-.39-.66,0-.32.37-.57,1.1-.77.54-.14,1.05-.21,1.52-.21.61,0,1.17.12,1.67.36.58.29.92.72,1,1.28,0-.02-.01.3-.01.96.03.1.04.35.04.74v.47c0,.18,0,.39-.01.63,0,.24-.01.44-.01.58v.26c0,.31.08.55.24.74.17.17.25.31.25.43,0,.19-.21.28-.63.28Zm-1.07-3.07c-.26-.07-.5-.11-.73-.14-.23-.03-.43-.04-.62-.04-.51,0-.93.09-1.25.26-.42.22-.63.56-.63,1.02,0,.26.18.47.53.63.29.1.58.15.89.15.57,0,1.17-.16,1.81-.47v-1.41Z"/>
      <path class="cls-5" d="m316.88,141.86v-3.97c0-.44-.08-.75-.25-.93-.18-.2-.48-.31-.91-.31-.47,0-.94.19-1.39.56-.47.38-.71.8-.71,1.27v3.33c0,.35-.19.53-.58.53-.15,0-.29-.05-.42-.16-.13-.11-.2-.24-.2-.38v-5.73c0-.16.08-.3.25-.43.15-.11.31-.17.47-.17.2,0,.35.1.44.31.03.09.05.19.08.28.03.09.06.19.1.28h0c.12-.18.41-.36.87-.56.45-.19.79-.28,1-.28.88,0,1.52.22,1.93.67.36.41.54,1.07.54,1.98v3.72c0,.3-.2.45-.6.45s-.61-.15-.61-.45Z"/>
      <path class="cls-5" d="m324.17,139.27c-1.43.85-2.28,1.28-2.55,1.28-.15,0-.28-.05-.4-.16s-.17-.23-.17-.37c0-.24.11-.43.33-.56l3.05-1.73-3.09-1.67c-.26-.15-.39-.34-.39-.57,0-.17.06-.31.19-.44.12-.13.27-.19.42-.19.09,0,.2.02.31.07l3.75,2.09c.46.26.68.49.68.7,0,.17-.71.68-2.13,1.55Z"/>
      <path class="cls-5" d="m48.67,151.89c-.31.16-.61.31-.92.47s-.62.31-.93.47l3.04,1.73c.2.11.29.27.29.47,0,.16-.06.3-.17.42-.11.12-.24.18-.39.18-.18,0-.83-.32-1.95-.96-.43-.24-.81-.46-1.15-.67-.34-.2-.64-.39-.9-.56-.29-.18-.43-.39-.43-.66s.15-.47.46-.65c.19-.11.45-.27.8-.46.35-.2.77-.43,1.28-.71,1.17-.64,1.8-.96,1.88-.96.18,0,.33.1.46.29.09.15.14.33.14.54,0,.17-.5.52-1.5,1.06Z"/>
      <path class="cls-5" d="m56.87,152.72c-1.51,3.17-2.31,4.92-2.41,5.27-.09.15-.27.22-.53.22-.51,0-.77-.15-.77-.45,0-.1.72-1.76,2.16-4.96,1.46-3.21,2.28-4.96,2.47-5.23.14-.2.38-.29.71-.29.14,0,.27.05.38.14s.17.21.17.35c0,.15-.73,1.8-2.19,4.95Z"/>
      <path class="cls-5" d="m67.32,156.08c0,.11-.01.24-.01.38v.47c0,.33-.19.5-.57.52-.22,0-.38-.03-.48-.12-.09-.09-.14-.24-.14-.45-.4.38-.88.57-1.45.57-.94,0-1.71-.33-2.32-.99-.58-.63-.87-1.41-.87-2.34s.29-1.66.86-2.34c.61-.7,1.36-1.05,2.23-1.05.48,0,.99.1,1.52.31v-2.84c0-.16.06-.29.19-.39.13-.1.27-.15.43-.15.39,0,.59.18.6.54v7.15s.01.74.01.74Zm-1.21-3.71c-.48-.29-.95-.43-1.39-.43-.55,0-1.03.21-1.45.65-.42.44-.63.93-.63,1.46,0,.67.21,1.21.63,1.61.44.42.99.61,1.67.58.32,0,.71-.24,1.17-.7v-3.16Z"/>
      <path class="cls-5" d="m73.61,157.14c0,.21-.2.32-.58.32-.41,0-.61-.12-.61-.35v-5.12h-1.31c-.33,0-.49-.17-.49-.52,0-.2.04-.37.13-.5.09-.13.21-.2.36-.2h1.71c.35,0,.58.05.67.15.09.1.14.24.14.42v5.81-.03Zm-.91-7.43c-.23,0-.43-.09-.61-.26-.17-.17-.26-.37-.26-.59s.08-.43.26-.6c.17-.17.37-.25.61-.25s.42.08.59.25.25.37.25.6c0,.57-.28.85-.84.85Z"/>
      <path class="cls-5" d="m82.82,154.08c-.33.9-.59,1.6-.81,2.09-.21.49-.37.83-.46,1.02-.09.2-.24.31-.45.31-.24,0-.42-.11-.54-.33-.12-.2-.53-1.23-1.23-3.08-.7-1.93-1.05-2.95-1.05-3.05,0-.31.27-.46.79-.46.31,0,.52.13.63.4l1.37,3.85,1.42-3.8c.09-.31.37-.46.82-.46.41,0,.61.14.61.43,0,.16-.37,1.19-1.11,3.09Z"/>
      <path class="cls-5" d="m90.03,154.4c-1.43.85-2.28,1.28-2.55,1.28-.15,0-.28-.05-.4-.16s-.17-.23-.17-.37c0-.24.11-.43.33-.56l3.05-1.73-3.09-1.67c-.26-.15-.39-.34-.39-.57,0-.17.06-.31.19-.44.12-.13.27-.19.42-.19.09,0,.2.02.31.07l3.75,2.09c.46.26.68.49.68.7,0,.17-.71.68-2.13,1.55Z"/>
    </g>
  </g>
</svg>